<?xml version="1.0" encoding="utf-8"?>
<!-- Generator: Adobe Illustrator 18.0.0, SVG Export Plug-In . SVG Version: 6.00 Build 0)  -->
<!DOCTYPE svg PUBLIC "-//W3C//DTD SVG 1.1//EN" "http://www.w3.org/Graphics/SVG/1.1/DTD/svg11.dtd">
<svg version="1.1" id="Layer_1" xmlns="http://www.w3.org/2000/svg" xmlns:xlink="http://www.w3.org/1999/xlink" x="0px" y="0px"
	 viewBox="0 0 2800 2800" enable-background="new 0 0 2800 2800" xml:space="preserve">
<linearGradient id="SVGID_1_" gradientUnits="userSpaceOnUse" x1="1447.2628" y1="-126.5895" x2="1387.2748" y2="1811.0229">
	<stop  offset="0" style="stop-color:#7A4C90"/>
	<stop  offset="0.1189" style="stop-color:#A0648C"/>
	<stop  offset="0.2474" style="stop-color:#C27988"/>
	<stop  offset="0.3788" style="stop-color:#DD8A85"/>
	<stop  offset="0.5126" style="stop-color:#F09683"/>
	<stop  offset="0.65" style="stop-color:#FB9D81"/>
	<stop  offset="0.7968" style="stop-color:#FF9F81"/>
</linearGradient>
<rect fill="url(#SVGID_1_)" width="2800" height="2800"/>
<path opacity="0.37" fill="#B95DC9" d="M2801,780.4c-24.4-5.2-48.4-2.9-67.4,13c15.2-93.8-61.6-192.1-156.3-200.1
	c-94.7-8-186.9,76.1-187.6,171.2c-27.8-36.2-79.1-52.4-122.6-38.5c-43.5,13.9-76,56.7-77.7,102.3c-45.4-9.5-95.2,5.1-128.3,37.6
	c-11.3,26.8,445,31.4,739.9,23.7V780.4z"/>
<linearGradient id="SVGID_2_" gradientUnits="userSpaceOnUse" x1="1400" y1="1633.7216" x2="1400" y2="2825.5437">
	<stop  offset="0.4459" style="stop-color:#8BE2C8"/>
	<stop  offset="0.6399" style="stop-color:#7CB5D6"/>
	<stop  offset="0.9144" style="stop-color:#646FED"/>
</linearGradient>
<rect y="1601.7" fill="url(#SVGID_2_)" width="2800" height="1198.3"/>
<radialGradient id="SVGID_3_" cx="749.6832" cy="727.2465" r="563.4012" gradientUnits="userSpaceOnUse">
	<stop  offset="0.5668" style="stop-color:#FCE573"/>
	<stop  offset="1" style="stop-color:#FCE573;stop-opacity:0"/>
</radialGradient>
<circle fill="url(#SVGID_3_)" cx="749.7" cy="727.2" r="622"/>
<linearGradient id="SVGID_4_" gradientUnits="userSpaceOnUse" x1="1400" y1="1493.6355" x2="1400" y2="2049.0081">
	<stop  offset="0.2032" style="stop-color:#FF9F81"/>
	<stop  offset="0.3366" style="stop-color:#FB9E82"/>
	<stop  offset="0.4614" style="stop-color:#F09B84"/>
	<stop  offset="0.5829" style="stop-color:#DD9689"/>
	<stop  offset="0.7023" style="stop-color:#C28F8E"/>
	<stop  offset="0.8203" style="stop-color:#A08696"/>
	<stop  offset="0.9356" style="stop-color:#777B9F"/>
	<stop  offset="1" style="stop-color:#5C74A5"/>
</linearGradient>
<rect y="1273.7" fill="url(#SVGID_4_)" width="2800" height="746.3"/>
<g>
	<linearGradient id="SVGID_5_" gradientUnits="userSpaceOnUse" x1="59.5411" y1="2073.0698" x2="2740.459" y2="2073.0698">
		<stop  offset="0" style="stop-color:#9B88FF"/>
		<stop  offset="0.9893" style="stop-color:#4A52FF"/>
	</linearGradient>
	<path fill="url(#SVGID_5_)" d="M245.1,2124.1h2364.8h83.3h23.2c14.3-8.2,24.1-23.6,24.1-41.2v-13.7c0-26-21.3-47.3-47.3-47.3H106.8
		c-26,0-47.3,21.3-47.3,47.3v13.7c0,17.6,9.7,33,24.1,41.2h23.2H245.1z"/>
	<path fill="#44D1E0" d="M245.1,2232.4h-86.3c-18,6.7-30.9,24.1-30.9,44.3v13.7c0,26,21.3,47.3,47.3,47.3h2449.6
		c26,0,47.3-21.3,47.3-47.3v-13.7c0-20.3-12.9-37.6-30.9-44.3h-31.4H245.1z"/>
	<path fill="#2CB0C6" d="M264.9,2171.4v13.7c0,20.3-12.9,37.6-30.9,44.3H2566c-18-6.7-30.9-24.1-30.9-44.3v-13.7
		c0-17.6,9.7-33,24.1-41.2H240.8C255.2,2138.4,264.9,2153.8,264.9,2171.4z"/>
	<path fill="#2CB0C6" d="M217.6,2124.1c8.4,0,16.4,2.2,23.2,6.2h2318.3c6.9-3.9,14.8-6.2,23.2-6.2H217.6z"/>
	<path fill="#2CB0C6" d="M217.6,2232.4h2364.8c-5.8,0-11.3-1.1-16.4-3H234C228.9,2231.3,223.4,2232.4,217.6,2232.4z"/>
	<g>
		<path fill="#7CE8E8" d="M1993.3,2338.9h-80.8c-16.8,6.3-28.9,22.6-28.9,41.5v12.8c0,24.4,19.9,44.3,44.3,44.3h200
			c24.4,0,44.3-19.9,44.3-44.3v-12.8c0-19-12.1-35.2-28.9-41.5h-29.4H1993.3z"/>
		<path fill="#7CE8E8" d="M585.4,2379.5v13.7c0,20.3-12.9,37.6-30.9,44.3h1472.9c-18-6.7-30.9-24.1-30.9-44.3v-13.7
			c0-17.6,9.7-33,24.1-41.2H561.3C575.7,2346.5,585.4,2361.9,585.4,2379.5z"/>
		<circle fill="#7CE8E8" cx="2245" cy="2387.5" r="39"/>
		<circle fill="#7CE8E8" cx="526.5" cy="2387" r="41"/>
	</g>
</g>
<g>
	<g>
		<path opacity="0.58" fill="#F77B5E" d="M1557.9,2022c64.1-28.3,122.8-88.5,170.9-153.2c72.8-97.9,136.4-213.1,228.8-276.9
			c107.3-74.1,245.7-63.9,345.9,25.6c69.8,62.3,118.5,156,171.5,241.9c38.3,62.2,82,123.1,134.1,162.7H1557.9z"/>
		<path opacity="0.58" fill="#F77B5E" d="M2800,2022H1764.5c96.6-32.5,184.9-101.9,257.3-176.4c109.6-112.8,205.4-245.3,344.5-318.9
			c132.2-69.9,295.9-74.6,433.7-17.5V2022z"/>
	</g>
	<path opacity="0.58" fill="#F77B5E" d="M1242.1,2022c-64.1-28.3-122.8-88.5-170.9-153.2c-72.8-97.9-136.4-213.1-228.8-276.9
		c-107.3-74.1-245.7-63.9-345.9,25.6c-69.8,62.3-118.5,156-171.5,241.9c-38.3,62.2-82,123.1-134.1,162.7H1242.1z"/>
	<path opacity="0.58" fill="#F77B5E" d="M0,2022h1035.5c-96.6-32.5-184.9-101.9-257.3-176.4c-109.6-112.8-205.4-245.3-344.5-318.9
		c-132.2-69.9-295.9-74.6-433.7-17.5V2022z"/>
	<linearGradient id="SVGID_6_" gradientUnits="userSpaceOnUse" x1="404.4831" y1="1689.1647" x2="436.4831" y2="2081.1646">
		<stop  offset="0" style="stop-color:#9B88FF"/>
		<stop  offset="0.9893" style="stop-color:#4A52FF"/>
	</linearGradient>
	<path fill="url(#SVGID_6_)" d="M4,2022h855.3c-59.7-20.1-114.2-63-158.9-109c-67.7-69.7-126.9-151.6-212.8-197
		c-99.8-52.7-228.6-45.5-321.7,18.2c-64.9,44.3-110.2,111-159.6,172.1c-0.8,0.9-1.5,1.9-2.3,2.8V2022z"/>
	<linearGradient id="SVGID_7_" gradientUnits="userSpaceOnUse" x1="1617.1509" y1="1590.1714" x2="1649.1509" y2="1982.1714">
		<stop  offset="0" style="stop-color:#9B88FF"/>
		<stop  offset="0.9893" style="stop-color:#4A52FF"/>
	</linearGradient>
	<path fill="url(#SVGID_7_)" d="M2253.4,2022c-73.3-24.7-140.4-77.4-195.4-134c-83.3-85.6-156-186.3-261.6-242.2
		c-122.7-64.8-281-55.9-395.5,22.4c-79.8,54.5-135.5,136.4-196.2,211.6c-43.8,54.4-93.8,107.6-153.4,142.2H2253.4z"/>
	<linearGradient id="SVGID_8_" gradientUnits="userSpaceOnUse" x1="932.4358" y1="1643" x2="932.4358" y2="2019.3403">
		<stop  offset="0.123" style="stop-color:#C8A6FF"/>
		<stop  offset="0.5614" style="stop-color:#9B85FF"/>
		<stop  offset="1" style="stop-color:#6A61FF"/>
	</linearGradient>
	<path fill="url(#SVGID_8_)" d="M1542.1,2022c-74.4-25.1-142.4-78.5-198.2-135.9c-84.5-86.9-158.2-189-265.4-245.6
		c-124.4-65.8-285-56.7-401.2,22.7c-80.9,55.3-137.5,138.4-199,214.6c-44.5,55.1-95.1,109.2-155.6,144.3H1542.1z"/>
	<linearGradient id="SVGID_9_" gradientUnits="userSpaceOnUse" x1="2334.4592" y1="1643" x2="2334.4592" y2="2019.3403">
		<stop  offset="0.123" style="stop-color:#C8A6FF"/>
		<stop  offset="0.5614" style="stop-color:#9B85FF"/>
		<stop  offset="1" style="stop-color:#6A61FF"/>
	</linearGradient>
	<path fill="url(#SVGID_9_)" d="M2800.7,1825.1c-59.8-66.2-119.7-132.5-197.9-173.9c-120.9-63.9-277-55.1-389.9,22
		c-78.6,53.7-133.6,134.5-193.4,208.6c-43.2,53.6-92.4,106.1-151.2,140.2h932.4V1825.1z"/>
</g>
<linearGradient id="SVGID_10_" gradientUnits="userSpaceOnUse" x1="493.6277" y1="412.2575" x2="997.6277" y2="1032.2574">
	<stop  offset="0.3262" style="stop-color:#FCE573"/>
	<stop  offset="0.6791" style="stop-color:#FCC773"/>
</linearGradient>
<circle fill="url(#SVGID_10_)" cx="749.7" cy="727.2" r="474"/>
<g>
	<g>
		<path fill="#EB2726" d="M2086.7,1153.3c-457,36-916.2,36-1373.2,0c-1.9,24.2,1.2,48.3-0.1,72.5c-0.1,2.5,1.7,4.6,4.2,4.8
			c458,35.8,905.9,35.8,1363.9,0c2.5-0.2,4.3-2.3,4.2-4.8C2084.4,1201.6,2088.6,1177.4,2086.7,1153.3z"/>
		<g>
			<path fill="#FF4D4D" d="M2086.7,1160.9c-0.1,0-0.2,0-0.3,0c-0.6,11.9-1.3,23.7-0.7,35.6c0.1,2.5-1.7,4.6-4.2,4.8
				c-458,35.8-905.9,35.8-1363.9,0c-2.5-0.2-4.4-2.3-4.2-4.8c0.6-11,0.3-22-0.1-33c-1.5,23.3,1.3,46.6,0.1,69.9
				c-0.1,2.5,1.7,4.6,4.2,4.8c458,35.8,905.9,35.8,1363.9,0c2.5-0.2,4.3-2.3,4.2-4.8C2084.4,1209.3,2088.6,1185.1,2086.7,1160.9z"/>
		</g>
		<path fill="#BA0808" d="M2110.2,1158.2c-472.8,36.9-947.7,36.9-1420.4,0c-3.3-0.3-5.8-3.2-5.6-6.5c0.7-8.5,1.3-17,2-25.4
			c475.1,37.4,952.4,37.4,1427.6,0c0.7,8.5,1.3,17,2,25.4C2116,1155.1,2113.6,1158,2110.2,1158.2z"/>
	</g>
	<g>
		<path fill="#8E3A1C" d="M1257.9,864.6l1.8,36.1c0,0,138.2,22.6,280.1,0l2-34.1C1566.1,866,1257.9,864.6,1257.9,864.6z"/>
	</g>
	<g>
		<path fill="#EB2726" d="M1849.5,1087.1l84.4,30.9c10,3.7,15.2,14.8,11.5,24.8v0c-3.7,10-14.8,15.2-24.8,11.5l-71.1-26V1087.1z"/>
		<path fill="#EB2726" d="M1705,1087.1l-84.4,30.9c-10,3.7-15.2,14.8-11.5,24.8v0c3.7,10,14.8,15.2,24.8,11.5l71.1-26V1087.1z"/>
		<path fill="#EB2726" d="M950.5,1087.1l-84.4,30.9c-10,3.7-15.2,14.8-11.5,24.8v0c3.7,10,14.8,15.2,24.8,11.5l71.1-26V1087.1z"/>
		<path fill="#EB2726" d="M1095,1087.1l84.4,30.9c10,3.7,15.2,14.8,11.5,24.8v0c-3.7,10-14.8,15.2-24.8,11.5l-71.1-26V1087.1z"/>
		<rect x="949.1" y="1051" fill="#EB2726" width="146.6" height="1181.2"/>
		<rect x="949.1" y="1051" fill="#FF4D4D" width="39.9" height="1181.2"/>
		<polygon fill="#BA0808" points="949.1,1051 949.1,1095.9 1056.8,1095.9 1056.8,2232.2 1095.7,2232.2 1095.7,1051 		"/>
		<path fill="#EB2726" d="M1126.1,1059.4H918.7c-4.3,0-7.7-3.5-7.7-7.7V931.1c0-4.3,3.5-7.7,7.7-7.7h207.4c4.3,0,7.7,3.5,7.7,7.7
			v120.6C1133.8,1056,1130.3,1059.4,1126.1,1059.4z"/>
		<path fill="#BA0808" d="M1124.4,923.3H920.3c-5.2,0-9.4,4.2-9.4,9.4v60c8.7,1.2,147.1,14.5,161.6,18.1
			c14.9,3.8,12.1,32.8,11.3,41.4c-0.4,4-1.9,3.1-2.2,7.1h42.7c5.2,0,9.4-4.2,9.4-9.4V932.7C1133.8,927.5,1129.6,923.3,1124.4,923.3z
			"/>
		<rect x="1704.3" y="1051" fill="#EB2726" width="146.6" height="1181.2"/>
		<rect x="1811" y="1051" fill="#FF4D4D" width="39.9" height="1181.2"/>
		<polygon fill="#BA0808" points="1850.9,1025.8 1850.9,1095.9 1743.2,1095.9 1743.2,2231.9 1704.3,2231.9 1704.3,1025.8 		"/>
		<path fill="#EB2726" d="M1673.9,1059.4h207.4c4.3,0,7.7-3.5,7.7-7.7V931.1c0-4.3-3.5-7.7-7.7-7.7h-207.4c-4.3,0-7.7,3.5-7.7,7.7
			v120.6C1666.2,1056,1669.7,1059.4,1673.9,1059.4z"/>
		<path fill="#BA0808" d="M1675.6,923.3h204.1c5.2,0,9.4,4.2,9.4,9.4v60c-8.7,1.2-147.1,14.5-161.6,18.1
			c-14.9,3.8-12.1,32.8-11.3,41.4c0.4,4,1.9,3.1,2.2,7.1h-42.7c-5.2,0-9.4-4.2-9.4-9.4V932.7
			C1666.2,927.5,1670.4,923.3,1675.6,923.3z"/>
		<g>
			<path fill="#4F200B" d="M2125.7,1446.1h-228.4c-4.9,0-6.8-6.5-2.7-9.2l114.6-55.7l119.1,55.7
				C2132.5,1439.5,2130.7,1446.1,2125.7,1446.1z"/>
			<path fill="#6C3214" d="M1978,1396.1l31.2-14.9l119.1,55.7c4.2,2.6,2.4,9.2-2.6,9.2H2084
				C2083.2,1445.5,1992.4,1406.5,1978,1396.1z"/>
			<path fill="#D81919" d="M1785.4,1694.2h-14.1c-6.6,0-12-5.4-12-12v-85.9c0-6.6,5.4-12,12-12h14.1c6.6,0,12,5.4,12,12v85.9
				C1797.4,1688.8,1792,1694.2,1785.4,1694.2z"/>
			<g>
				<path fill="#EB2726" d="M1781.7,1681.5h216.8c4.7,0,8.6-3.8,8.6-8.6v-63.4c0-4.7-3.8-8.6-8.6-8.6h-216.8c-4.7,0-8.6,3.8-8.6,8.6
					v63.4C1773.1,1677.7,1776.9,1681.5,1781.7,1681.5z"/>
				<path fill="#BA0808" d="M2007,1655.5v15.6c0,5.7-4.6,10.4-10.4,10.4h-213.2c-5.7,0-10.4-4.6-10.4-10.4v-15.6H2007z"/>
				<g>
					<path fill="#FF4D4D" d="M1995.6,1600.9h-211.1c-6.3,0-11.4,5.1-11.4,11.4v6.5c0,0.6,0.4,1.1,0.9,1.3c0.9,0.3,1.8,0.5,2.7,0.5
						h226.7c0.9,0,1.8-0.2,2.7-0.5c0.5-0.2,0.9-0.7,0.9-1.3v-6.5C2007,1606,2001.9,1600.9,1995.6,1600.9z"/>
				</g>
			</g>
			<path fill="#D81919" d="M1785.4,2037h-14.1c-6.6,0-12-5.4-12-12v-85.9c0-6.6,5.4-12,12-12h14.1c6.6,0,12,5.4,12,12v85.9
				C1797.4,2031.6,1792,2037,1785.4,2037z"/>
			<g>
				<path fill="#EB2726" d="M1781.7,2024.3h216.8c4.7,0,8.6-3.8,8.6-8.6v-63.4c0-4.7-3.8-8.6-8.6-8.6h-216.8c-4.7,0-8.6,3.8-8.6,8.6
					v63.4C1773.1,2020.5,1776.9,2024.3,1781.7,2024.3z"/>
				<path fill="#BA0808" d="M2007,1998.3v15.6c0,5.7-4.6,10.4-10.4,10.4h-213.2c-5.7,0-10.4-4.6-10.4-10.4v-15.6H2007z"/>
				<g>
					<path fill="#FF4D4D" d="M1995.6,1943.8h-211.1c-6.3,0-11.4,5.1-11.4,11.4v6.5c0,0.6,0.4,1.1,0.9,1.3c0.9,0.3,1.8,0.5,2.7,0.5
						h226.7c0.9,0,1.8-0.2,2.7-0.5c0.5-0.2,0.9-0.7,0.9-1.3v-6.5C2007,1948.9,2001.9,1943.8,1995.6,1943.8z"/>
				</g>
			</g>
			<path fill="#EB2726" d="M1957.9,2232.2h107.6v-700.7c0-5.9-4.8-10.7-10.7-10.7h-86.2c-5.9,0-10.7,4.8-10.7,10.7V2232.2z"/>
			<path fill="#FF4D4D" d="M2036.6,1520.7h15.9c7.2,0,13,5.8,13,13v698.5h-28.9V1520.7z"/>
			<path fill="#BA0808" d="M2065.4,1559.1V1535c0-7.9-6.4-14.2-14.2-14.2h-79.1c-7.9,0-14.2,6.4-14.2,14.2v24.1H2065.4z"/>
			<path fill="#BA0808" d="M1970.8,1519.5l23.4,1.2v711.5l-36.4-1.2v-698.5C1957.9,1525.3,1963.7,1519.5,1970.8,1519.5z"/>
			<path fill="#EB2726" d="M1932.1,1458.4h159.1c5.9,0,10.7,4.8,10.7,10.7v51.8c0,5.9-4.8,10.7-10.7,10.7h-159.1
				c-5.9,0-10.7-4.8-10.7-10.7v-51.8C1921.4,1463.2,1926.2,1458.4,1932.1,1458.4z"/>
			<path fill="#BA0808" d="M1921.4,1494.9v-23.6c0-7.2,5.8-13,13-13h154.6c7.2,0,13,5.8,13,13v23.6H1921.4z"/>
			<path fill="#EB2726" d="M1900.6,1475.9h222c5.9,0,10.7-4.8,10.7-10.7v-20.9c0-5.9-4.8-10.7-10.7-10.7h-222
				c-5.9,0-10.7,4.8-10.7,10.7v20.9C1889.9,1471.1,1894.7,1475.9,1900.6,1475.9z"/>
			<path fill="#D81919" d="M2023.7,1689.1h-10.6c-6.6,0-12-5.4-12-12v-75.6c0-6.6,5.4-12,12-12h10.6c6.6,0,12,5.4,12,12v75.6
				C2035.7,1683.7,2030.3,1689.1,2023.7,1689.1z"/>
			<g>
				<path fill="#EB2726" d="M2024.2,1681.5h93.5c4.7,0,8.6-3.8,8.6-8.6v-63.4c0-4.7-3.8-8.6-8.6-8.6h-93.5c-4.7,0-8.6,3.8-8.6,8.6
					v63.4C2015.6,1677.7,2019.5,1681.5,2024.2,1681.5z"/>
				<path fill="#BA0808" d="M2126.3,1655.5v15.6c0,5.7-4.6,10.4-10.4,10.4H2026c-5.7,0-10.4-4.6-10.4-10.4v-15.6H2126.3z"/>
				<g>
					<path fill="#FF4D4D" d="M2114.9,1600.9H2027c-6.3,0-11.4,5.1-11.4,11.4v6.5c0,0.6,0.4,1.1,0.9,1.3c0.9,0.3,1.8,0.5,2.7,0.5
						h103.4c0.9,0,1.8-0.2,2.7-0.5c0.5-0.2,0.9-0.7,0.9-1.3v-6.5C2126.3,1606,2121.2,1600.9,2114.9,1600.9z"/>
				</g>
			</g>
			<path fill="#D81919" d="M2023.7,2031.9h-10.6c-6.6,0-12-5.4-12-12v-75.6c0-6.6,5.4-12,12-12h10.6c6.6,0,12,5.4,12,12v75.6
				C2035.7,2026.5,2030.3,2031.9,2023.7,2031.9z"/>
			<g>
				<path fill="#EB2726" d="M2024.2,2024.3h93.5c4.7,0,8.6-3.8,8.6-8.6v-63.4c0-4.7-3.8-8.6-8.6-8.6h-93.5c-4.7,0-8.6,3.8-8.6,8.6
					v63.4C2015.6,2020.5,2019.5,2024.3,2024.2,2024.3z"/>
				<path fill="#BA0808" d="M2126.3,1998.3v15.6c0,5.7-4.6,10.4-10.4,10.4H2026c-5.7,0-10.4-4.6-10.4-10.4v-15.6H2126.3z"/>
				<g>
					<path fill="#FF4D4D" d="M2114.9,1943.8H2027c-6.3,0-11.4,5.1-11.4,11.4v6.5c0,0.6,0.4,1.1,0.9,1.3c0.9,0.3,1.8,0.5,2.7,0.5
						h103.4c0.9,0,1.8-0.2,2.7-0.5c0.5-0.2,0.9-0.7,0.9-1.3v-6.5C2126.3,1948.9,2121.2,1943.8,2114.9,1943.8z"/>
				</g>
			</g>
		</g>
		<g>
			<path fill="#4F200B" d="M677.4,1446.1h228.4c4.9,0,6.8-6.5,2.7-9.2l-114.6-55.7l-119.1,55.7
				C670.6,1439.5,672.4,1446.1,677.4,1446.1z"/>
			<path fill="#6C3214" d="M825.1,1396.1l-31.2-14.9l-119.1,55.7c-4.2,2.6-2.4,9.2,2.6,9.2h41.7
				C719.9,1445.5,810.7,1406.5,825.1,1396.1z"/>
			<path fill="#D81919" d="M1017.7,1694.2h14.1c6.6,0,12-5.4,12-12v-85.9c0-6.6-5.4-12-12-12h-14.1c-6.6,0-12,5.4-12,12v85.9
				C1005.7,1688.8,1011.1,1694.2,1017.7,1694.2z"/>
			<g>
				<path fill="#EB2726" d="M1021.4,1681.5H804.6c-4.7,0-8.6-3.8-8.6-8.6v-63.4c0-4.7,3.8-8.6,8.6-8.6h216.8c4.7,0,8.6,3.8,8.6,8.6
					v63.4C1030,1677.7,1026.1,1681.5,1021.4,1681.5z"/>
				<path fill="#BA0808" d="M796.1,1655.5v15.6c0,5.7,4.6,10.4,10.4,10.4h213.2c5.7,0,10.4-4.6,10.4-10.4v-15.6H796.1z"/>
				<g>
					<path fill="#FF4D4D" d="M807.5,1600.9h211.1c6.3,0,11.4,5.1,11.4,11.4v6.5c0,0.6-0.4,1.1-0.9,1.3c-0.9,0.3-1.8,0.5-2.7,0.5
						H799.7c-0.9,0-1.8-0.2-2.7-0.5c-0.5-0.2-0.9-0.7-0.9-1.3v-6.5C796.1,1606,801.2,1600.9,807.5,1600.9z"/>
				</g>
			</g>
			<path fill="#D81919" d="M1017.7,2037h14.1c6.6,0,12-5.4,12-12v-85.9c0-6.6-5.4-12-12-12h-14.1c-6.6,0-12,5.4-12,12v85.9
				C1005.7,2031.6,1011.1,2037,1017.7,2037z"/>
			<g>
				<path fill="#EB2726" d="M1021.4,2024.3H804.6c-4.7,0-8.6-3.8-8.6-8.6v-63.4c0-4.7,3.8-8.6,8.6-8.6h216.8c4.7,0,8.6,3.8,8.6,8.6
					v63.4C1030,2020.5,1026.1,2024.3,1021.4,2024.3z"/>
				<path fill="#BA0808" d="M796.1,1998.3v15.6c0,5.7,4.6,10.4,10.4,10.4h213.2c5.7,0,10.4-4.6,10.4-10.4v-15.6H796.1z"/>
				<g>
					<path fill="#FF4D4D" d="M807.5,1943.8h211.1c6.3,0,11.4,5.1,11.4,11.4v6.5c0,0.6-0.4,1.1-0.9,1.3c-0.9,0.3-1.8,0.5-2.7,0.5
						H799.7c-0.9,0-1.8-0.2-2.7-0.5c-0.5-0.2-0.9-0.7-0.9-1.3v-6.5C796.1,1948.9,801.2,1943.8,807.5,1943.8z"/>
				</g>
			</g>
			<path fill="#EB2726" d="M845.2,2232.2H737.6v-700.7c0-5.9,4.8-10.7,10.7-10.7h86.2c5.9,0,10.7,4.8,10.7,10.7V2232.2z"/>
			<path fill="#FF4D4D" d="M766.5,1520.7h-15.9c-7.2,0-13,5.8-13,13v698.5h28.9V1520.7z"/>
			<path fill="#BA0808" d="M737.6,1559.1V1535c0-7.9,6.4-14.2,14.2-14.2H831c7.9,0,14.2,6.4,14.2,14.2v24.1H737.6z"/>
			<path fill="#BA0808" d="M832.3,1519.5l-23.4,1.2v711.5l36.4-1.2v-698.5C845.2,1525.3,839.4,1519.5,832.3,1519.5z"/>
			<path fill="#EB2726" d="M871,1458.4H711.9c-5.9,0-10.7,4.8-10.7,10.7v51.8c0,5.9,4.8,10.7,10.7,10.7H871
				c5.9,0,10.7-4.8,10.7-10.7v-51.8C881.7,1463.2,876.9,1458.4,871,1458.4z"/>
			<path fill="#BA0808" d="M881.7,1494.9v-23.6c0-7.2-5.8-13-13-13H714.1c-7.2,0-13,5.8-13,13v23.6H881.7z"/>
			<path fill="#EB2726" d="M902.4,1475.9h-222c-5.9,0-10.7-4.8-10.7-10.7v-20.9c0-5.9,4.8-10.7,10.7-10.7h222
				c5.9,0,10.7,4.8,10.7,10.7v20.9C913.1,1471.1,908.4,1475.9,902.4,1475.9z"/>
			<path fill="#D81919" d="M779.3,1689.1h10.6c6.6,0,12-5.4,12-12v-75.6c0-6.6-5.4-12-12-12h-10.6c-6.6,0-12,5.4-12,12v75.6
				C767.3,1683.7,772.7,1689.1,779.3,1689.1z"/>
			<g>
				<path fill="#EB2726" d="M778.9,1681.5h-93.5c-4.7,0-8.6-3.8-8.6-8.6v-63.4c0-4.7,3.8-8.6,8.6-8.6h93.5c4.7,0,8.6,3.8,8.6,8.6
					v63.4C787.5,1677.7,783.6,1681.5,778.9,1681.5z"/>
				<path fill="#BA0808" d="M676.8,1655.5v15.6c0,5.7,4.6,10.4,10.4,10.4h89.9c5.7,0,10.4-4.6,10.4-10.4v-15.6H676.8z"/>
				<g>
					<path fill="#FF4D4D" d="M688.2,1600.9h87.9c6.3,0,11.4,5.1,11.4,11.4v6.5c0,0.6-0.4,1.1-0.9,1.3c-0.9,0.3-1.8,0.5-2.7,0.5
						H680.4c-0.9,0-1.8-0.2-2.7-0.5c-0.5-0.2-0.9-0.7-0.9-1.3v-6.5C676.8,1606,681.9,1600.9,688.2,1600.9z"/>
				</g>
			</g>
			<path fill="#D81919" d="M779.3,2031.9h10.6c6.6,0,12-5.4,12-12v-75.6c0-6.6-5.4-12-12-12h-10.6c-6.6,0-12,5.4-12,12v75.6
				C767.3,2026.5,772.7,2031.9,779.3,2031.9z"/>
			<g>
				<path fill="#EB2726" d="M778.9,2024.3h-93.5c-4.7,0-8.6-3.8-8.6-8.6v-63.4c0-4.7,3.8-8.6,8.6-8.6h93.5c4.7,0,8.6,3.8,8.6,8.6
					v63.4C787.5,2020.5,783.6,2024.3,778.9,2024.3z"/>
				<path fill="#BA0808" d="M676.8,1998.3v15.6c0,5.7,4.6,10.4,10.4,10.4h89.9c5.7,0,10.4-4.6,10.4-10.4v-15.6H676.8z"/>
				<g>
					<path fill="#FF4D4D" d="M688.2,1943.8h87.9c6.3,0,11.4,5.1,11.4,11.4v6.5c0,0.6-0.4,1.1-0.9,1.3c-0.9,0.3-1.8,0.5-2.7,0.5
						H680.4c-0.9,0-1.8-0.2-2.7-0.5c-0.5-0.2-0.9-0.7-0.9-1.3v-6.5C676.8,1948.9,681.9,1943.8,688.2,1943.8z"/>
				</g>
			</g>
		</g>
	</g>
	<g>
		<path fill="#EB2726" d="M625.6,804.5l19.2,127.9c0.7,4.6,4.4,8.2,9.1,8.6c55.7,5.4,396.9,36.8,738,36.8
			c341.3,0,682.6-31.5,738.1-36.8c4.6-0.4,8.3-4,9.1-8.5l19.7-125.4C1516.9,934.3,850.7,842.8,625.6,804.5z"/>
		<g>
			<path fill="#BA0808" d="M2148.1,864.8l10.6-67.4c-641.8,127.2-1308,35.7-1533.1-2.6l10.1,67.1
				C868.7,900.9,1518.9,987.2,2148.1,864.8z"/>
		</g>
		<path fill="#6C3214" d="M468.9,679.9l13.3,101.5c0.6,4.5,4,8,8.4,8.7c9.3,1.5,27.3,4.5,52.8,9c114.2,20.3,380.9,62.9,714.4,75.5
			l1.9,26c0,0,138.2,22.6,280.1,0l2-23.2c229-4.3,475.3-25.4,717.4-75.9c17-3.5,34-7.2,51-11.1c4-0.9,7.1-4.2,7.8-8.2l17-101.8
			C1535.3,869.8,660.4,717.6,468.9,679.9z"/>
		<g>
			<path fill="#4F200B" d="M2326.5,732l8.6-51.6c-799.9,189.4-1674.8,37.2-1866.3-0.5l6.7,50.9C679.2,770.4,1537.9,916.2,2326.5,732
				z"/>
		</g>
		<path fill="#65C98F" d="M408.2,565.6l20.9,101.1c0.8,4,3.9,7,7.8,7.9c6.3,1.3,17,3.6,31.9,6.5c191.5,37.7,1066.4,189.9,1866.3,0.5
			c9.4-2.2,18.8-4.5,28.2-6.8c3.8-0.9,6.8-4,7.5-7.9l20.9-106.3c1.5-7.5-5.5-13.8-12.8-11.7c-116.2,33.6-856.3,224.8-1958.8,4.8
			C413,552.2,406.7,558.5,408.2,565.6z"/>
		<g>
			<path fill="#A0F9C4" d="M462.5,599.6c1016.8,202.9,1725.2,56.1,1920.5,5.6l8.8-44.7c1.5-7.5-5.5-13.8-12.8-11.7
				c-116.2,33.6-856.3,224.8-1958.8,4.8c-7.1-1.4-13.4,4.9-12,12l20.9,101.1c0.8,4,3.9,7,7.8,7.9c5.7,1.2,15.1,3.2,27.8,5.7
				l-14.2-68.7C449.1,604.5,455.4,598.1,462.5,599.6z"/>
		</g>
	</g>
	<rect x="1367.4" y="946.1" fill="#2B2B2B" stroke="#231F20" stroke-width="18" stroke-miterlimit="10" width="2.3" height="0"/>
	<path fill="#2B2B2B" d="M1453,1114.4H1347c-9.7,0-17.5-7.9-17.5-17.5V929.4c0-9.7,7.9-17.5,17.5-17.5H1453
		c9.7,0,17.5,7.9,17.5,17.5v167.4C1470.5,1106.5,1462.6,1114.4,1453,1114.4z"/>
	<g>
		<path fill="#2B2B2B" d="M1422.9,1080.6h-45.8c-6.6,0-12-5.4-12-12V950.5c0-6.6,5.4-12,12-12h45.8c6.6,0,12,5.4,12,12v118.1
			C1434.9,1075.2,1429.5,1080.6,1422.9,1080.6z"/>
		<path fill="#F6921E" d="M1421,1086.5H1379c-10.9,0-19.8-8.9-19.8-19.8V952.5c0-10.9,8.9-19.8,19.8-19.8h41.9
			c10.9,0,19.8,8.9,19.8,19.8v114.2C1440.7,1077.6,1431.9,1086.5,1421,1086.5z M1379,944.4c-4.5,0-8.1,3.7-8.1,8.1v114.2
			c0,4.5,3.7,8.1,8.1,8.1h41.9c4.5,0,8.1-3.7,8.1-8.1V952.5c0-4.5-3.7-8.1-8.1-8.1H1379z"/>
	</g>
</g>
<path opacity="0.66" fill="#7CE8E8" d="M1280,2476.9h-64.4c-13.4,5-23,18-23,33.1v10.2c0,19.4,15.9,35.3,35.3,35.3h159.4
	c19.4,0,35.3-15.9,35.3-35.3V2510c0-15.1-9.6-28.1-23.1-33.1h-23.4H1280z"/>
<path opacity="0.66" fill="#7CE8E8" d="M1565,2476.9h-64.4c-13.4,5-23,18-23,33.1v10.2c0,19.4,15.9,35.3,35.3,35.3h47.2
	c19.4,0,35.3-15.9,35.3-35.3V2510c0-15.1-9.6-28.1-23-33.1h-23.4H1565z"/>
<path opacity="0.37" fill="#7CE8E8" d="M2174,2525.9h-64.4c-13.4,5-23,18-23,33.1v10.2c0,19.4,15.9,35.3,35.3,35.3h423.8
	c19.4,0,35.3-15.9,35.3-35.3V2559c0-15.1-9.6-28.1-23.1-33.1h-23.4H2174z"/>
<path opacity="0.37" fill="#7CE8E8" d="M374,2545.9h-64.4c-13.4,5-23,18-23,33.1v10.2c0,19.4,15.9,35.3,35.3,35.3h423.8
	c19.4,0,35.3-15.9,35.3-35.3V2579c0-15.1-9.6-28.1-23-33.1h-23.4H374z"/>
<g>
	<path fill="#FF4D4D" d="M1121,2284H697c-5,0-9-4-9-9l0,0c0-4.9,4-9,9-9h424c5,0,9,4.1,9,9l0,0C1130,2279.9,1126,2284,1121,2284z"/>
	<path fill="#FF4D4D" d="M925.1,2353H735c-5,0-9-4.1-9-9l0,0c0-4.9,4-9,9-9h190.1c5,0,9,4.1,9,9l0,0
		C934.1,2348.9,930.1,2353,925.1,2353z"/>
	<path fill="#FF4D4D" d="M1076.1,2353H972.4c-5,0-9-4.1-9-9l0,0c0-4.9,4-9,9-9h103.7c4.9,0,9,4.1,9,9l0,0
		C1085.1,2348.9,1081.1,2353,1076.1,2353z"/>
	<path fill="#FF4D4D" d="M976.5,2417h-147c-5,0-9-4.1-9-9l0,0c0-5,4-9,9-9h147c5,0,9,4,9,9l0,0C985.5,2413,981.5,2417,976.5,2417z"
		/>
</g>
<g>
	<path fill="#FF4D4D" d="M1678.1,2284h424c5,0,9-4,9-9l0,0c0-4.9-4-9-9-9h-424c-5,0-9,4.1-9,9l0,0
		C1669.1,2279.9,1673.1,2284,1678.1,2284z"/>
	<path fill="#FF4D4D" d="M1874,2353h190.1c4.9,0,9-4.1,9-9l0,0c0-4.9-4.1-9-9-9H1874c-5,0-9,4.1-9,9l0,0
		C1865,2348.9,1869,2353,1874,2353z"/>
	<path fill="#FF4D4D" d="M1723,2353h103.7c4.9,0,9-4.1,9-9l0,0c0-4.9-4.1-9-9-9H1723c-5,0-9,4.1-9,9l0,0
		C1714,2348.9,1718,2353,1723,2353z"/>
	<path fill="#FF4D4D" d="M1822.6,2417h147c4.9,0,9-4.1,9-9l0,0c0-5-4.1-9-9-9h-147c-5,0-9,4-9,9l0,0
		C1813.6,2413,1817.6,2417,1822.6,2417z"/>
</g>
<path fill="#EFEEEE" d="M1345.4,447.8c22.8-19.1,57.6-6.1,82.2,10.5c24.6,16.7,44.3,29.7,80.7,31.5c0.1,4.1,8.2,10.8-11.3,12.2
	c-135,10-572.6,10.7-564-9.8c20.3-19.9,50.8-28.9,78.7-23.1c1-28,21-54.3,47.7-62.7c26.7-8.5,58.2,1.4,75.2,23.6
	c0.4-58.3,57-109.9,115-105C1307.7,329.9,1354.8,390.2,1345.4,447.8z"/>
<path fill="#EFEEEE" d="M530.4,977.6c-16.2-15.9-40.5-23-62.7-18.4c-0.8-22.3-16.7-43.2-38-50c-21.2-6.8-46.3,1.1-59.9,18.8
	c-0.3-46.4-45.3-87.5-91.6-83.6c-46.2,3.9-83.8,51.9-76.3,97.7c-7.1-6-15.7-8-24.7-7.5c-3,1.1-6.4,1.6-9.3,2.7
	c-3.3,1.2-6.4,2.9-9.3,5c-4.8,3.5-8.8,8.7-10.4,13.7c-1.9,5.9-1.8,11.2,0.8,17.3c2.7,6.5,8.6,10.6,13.5,15.6
	C306.2,993,536,990.9,530.4,977.6z"/>
<path opacity="0.37" fill="#EFEEEE" d="M456.3,1281.2c-9.9-9.7-24.7-14-38.3-11.2c-0.5-13.6-10.2-26.4-23.2-30.5
	c-13-4.1-28.3,0.7-36.6,11.5c-0.2-28.4-27.7-53.5-56-51.1c-28.3,2.4-51.2,31.7-46.7,59.7c-4.3-3.6-9.6-4.9-15.1-4.6
	c-1.8,0.7-3.9,1-5.7,1.6c-2,0.7-3.9,1.8-5.7,3c-2.9,2.1-5.4,5.3-6.4,8.4c-1.1,3.6-1.1,6.8,0.5,10.5c1.6,4,5.2,6.5,8.2,9.5
	C319.3,1290.6,459.7,1289.3,456.3,1281.2z"/>
<path opacity="0.37" fill="#EFEEEE" d="M2529.5,1263.1c15.4-12.9,39-4.1,55.7,7.1s30,20.1,54.6,21.3c0.1,2.7,5.5,7.3-7.7,8.3
	c-91.4,6.8-387.7,7.2-381.9-6.6c13.8-13.5,34.4-19.5,53.3-15.6c0.7-18.9,14.2-36.7,32.3-42.5c18.1-5.8,39.4,0.9,50.9,16
	c0.3-39.5,38.6-74.4,77.9-71.1C2504,1183.3,2535.9,1224.1,2529.5,1263.1z"/>
<path opacity="0.37" fill="#EFEEEE" d="M2053.7,376.4c13.4-11.3,34-3.6,48.5,6.2c14.5,9.8,26.2,17.5,47.6,18.6
	c0.1,2.4,4.8,6.4-6.7,7.2c-79.7,5.9-337.9,6.3-332.9-5.8c12-11.8,30-17,46.4-13.6c0.6-16.5,12.4-32,28.1-37s34.3,0.8,44.4,13.9
	c0.3-34.4,33.6-64.8,67.9-61.9C2031.4,306.9,2059.2,342.5,2053.7,376.4z"/>
</svg>
