<?xml version="1.0" encoding="utf-8"?>
<svg version="1.1" x="0px" y="0px" viewBox="0 0 800 600" style="enable-background:new 0 0 800 600;" xmlns="http://www.w3.org/2000/svg">
  <style type="text/css">
	.st0{fill:#FCEEC3;}
	.st1{fill:#FFD36B;}
	.st2{fill:#E2B04A;}
	.st3{fill:#F7A29B;}
	.st4{fill:#FCDBD5;}
	.st5{fill:#F6E6CB;}
	.st6{fill:#F3775B;}
	.st7{fill:#F7E2CB;}
	.st8{fill:#E26045;}
	.st9{fill:#151434;}
	.st10{fill:#FFFFFF;}
	.st11{clip-path:url(#SVGID_2_);}
	.st12{fill:#D8807C;}
	.st13{fill:#FEE68F;}
	.st14{fill:#FCB754;}
	.st15{clip-path:url(#SVGID_4_);}
	.st16{fill:#F9B2A8;}
	.st17{fill:#081636;}
	.st18{fill:#DF6F64;}
	.st19{fill:#1A1A1A;}
	.st20{fill:#F15822;}
	.st21{fill:#006535;}
	.st22{fill:#FBAE3B;}
	.st23{fill:#481E11;}
	.st24{fill:#E7CFA7;}
	.st25{fill:#CFA874;}
	.st26{fill:#3BB54A;}
	.st27{fill:#D78B28;}
	.st28{fill:#2F3F99;}
	.st29{fill:#4958A7;}
	.st30{fill:#9EB5DE;}
	.st31{fill:#DECEC4;}
	.st32{fill:#E5E5E5;}
	.st33{fill:#E95555;}
	.st34{fill:#C43C3B;}
	.st35{fill:#1E2F44;}
	.st36{fill:#2E4059;}
	.st37{fill:#4C5726;}
	.st38{fill:#627734;}
</style>
  <g>
    <g id="background">
      <g>
        <path class="st2" d="M625.6,527.9c-81.3-1-159.9,3.4-240.9,2.9c-91.5-0.6-183.1,0.1-274.2,5.7c-7.9,0.5-16.4,1.2-22.6,4.8 c-24,14,19.2,17.7,29.8,18c189,6.1,378.5,4.7,567.3-4c15.3-0.7,35.4-5.2,34.4-16.3C690.6,528.8,657.5,528.3,625.6,527.9z" style="fill: rgb(247, 198, 98);"/>
      </g>
      <g>
        <g>
          <g/>
          <g/>
        </g>
      </g>
    </g>
    <g id="illustration">
      <g>
        <g>
          <g>
            <g>
              <path class="st19" d="M416.3,549.5c1.6-0.1,11-1.2,10.8-0.2c10.3-50.8,23.7-97.5,34.9-152.5c-6.1-0.3-12.3-0.7-18.4-1 C436.2,447.1,423.1,497.8,416.3,549.5z"/>
            </g>
            <g>
              <path class="st19" d="M699.9,549.5c-1.6-0.1-11-1.2-10.8-0.2c-10.3-50.8-23.7-97.5-34.9-152.5c6.1-0.3,12.3-0.7,18.4-1 C680,447.1,693.1,497.8,699.9,549.5z"/>
            </g>
            <g>
              <path class="st19" d="M557.4,397.6c1.7,51.1,4.6,102.1,8.7,153.1c3.8,0.1,7.6,0.2,11.4,0.3c1.6-51.7,0.5-103.5-3.1-155.1 c-5.7-0.1-11.4-0.1-17.1-0.2"/>
            </g>
            <g>
              <path class="st19" d="M558.8,397.6c-1.7,51.1-4.6,102.1-8.7,153.1c-3.8,0.1-7.6,0.2-11.4,0.3c-1.6-51.7-0.5-103.5,3.1-155.1 c5.7-0.1,11.4-0.1,17.1-0.2"/>
            </g>
            <g>
              <path class="st31" d="M722.7,207.4c-0.3-13.5-46.1-11.9-55.5-11.9c-27.5,0.1-58.4-2.2-85.2,3.8c-20.9,4.7-18,21.2-21.4,38.8 c-3.9,20.3-7.9,40.6-11.6,61c-3.8,21-9.3,41.2-13.8,62c-0.4,1.9-0.9,3.9-2.3,5.3c-1.5,1.5-3.6,1.9-5.7,2.3 c-21.4,4.1-42.6,9.2-63.7,14.6c-13.7,3.5-44,4.6-51.4,17.9c-3.9,6.9-3.9,15.3-2.6,23.1c0.6,3.6,1.7,7.4,4.6,9.6 c13.1,9.9,47.6,4.3,63.3,4.1c69.2-1,138.6-5.1,207.7-11.3c22.1-2,18.6-34.2,20.5-51.2c2.3-19.8,3.9-39.6,6.6-59.7 C717,279.9,723.6,243.9,722.7,207.4z"/>
            </g>
            <g>
              <path class="st32" d="M705.7,375.7c2.3-19.8,3.9-39.6,6.6-59.7c4.7-36,11.4-72.1,10.5-108.5c0-1.1-0.1-2.3-0.6-3.2 c-0.7-1.1-1.9-1.7-3.2-2.2c-6.4-2.5-13.4-3.3-20.2-2.2c-18.2,2.8-15.5,23.9-18.3,38.3c-3.9,20.3-7.9,40.6-11.6,61 c-3.8,21-9.3,41.2-13.8,62c-0.4,1.9-0.9,3.9-2.3,5.3c-1.5,1.5-3.6,1.9-5.7,2.3c-21.4,4.1-42.6,9.2-63.7,14.6 c-13.7,3.5-44,4.6-51.4,17.9c-3.9,6.9-3.9,15.3-2.6,23.1c0.6,3.6,1.7,7.4,4.6,9.6c2.9,2.2,6.9,2.2,10.6,2 c46.9-1.9,93.8-5,140.6-9.2C707.2,424.9,703.7,392.7,705.7,375.7z"/>
            </g>
          </g>
          <g>
            <g>
              <path class="st16" d="M464.9,269.3c-8.7,7.3-18,15.6-20.1,26.8c-0.8,4.4-0.3,9.3,2.4,12.8c3.2,4.1,8.9,5.6,14,5.1 s9.9-2.9,14.5-5.4c27.7-14.9,52.2-35.5,71.7-60.2c6.3-8,12.1-16.7,13.8-26.7c0.8-4.9,0.4-10.5-2.9-14.2 c-3.6-4-9.7-5-14.9-3.6c-5.2,1.4-9.7,4.7-13.9,8.1C507.5,229.7,486.9,250.8,464.9,269.3z"/>
            </g>
            <g>
              <path class="st18" d="M437.3,292.5c8-12.1,25-17.4,36.8-25.3c1.1-0.8,2.4-1.6,3.7-1.4c5.3,0.4,5.1,15.6,5.4,19.2 c0.5,5,2.7,6.3,5.5,10.4c3.5,5,5.6,11.2,4.7,17.4c-0.2,1.3-0.6,2.7-1.6,3.6c-1.6,1.3-4,0.7-5.4-0.8c-1.4-1.4-1.9-3.5-2.3-5.4 s-0.7-4-1.7-5.7c-0.2-0.3-0.4-0.6-0.7-0.7c-0.3-0.2-0.7-0.1-1.1-0.1c-8.5,0.8-17,1.3-25.4,1.9c-4.2,0.3-8.5,0.6-12.6-0.6 c-3.6-1-7.2-3.8-7.1-7.6C435.4,295.6,436.3,294,437.3,292.5z"/>
            </g>
            <g>
              <path class="st16" d="M465.1,300.9c5.7-6.7,10.2-14.3,12.7-22.8c1.7-5.8,4.7-21.4-6.7-14.5c-3.5,2.1-5.7,5.6-7.8,9.1 c-0.8-3.2-5.3-4-8.1-2.3c-2.8,1.7-4.3,4.8-5.6,7.8c-1.6-1.8-4.6-1.8-6.7-0.6c-6.5,3.7-10.1,15.9-12,22.7 c-0.4,1.6-0.7,3.6,0.4,4.8c1,1,2.7,1.1,4,0.5c1.3-0.6,2.3-1.7,3.2-2.9c3.6-4.6,6.8-9.6,9.3-14.9c-1.1,4.6-2.2,9.8,0.2,13.8 c0.2,0.4,0.5,0.8,1,1c0.9,0.3,1.7-0.5,2.2-1.2c3.6-4.5,6.8-9.3,9.5-14.4c-0.7,4.1-1.5,8.4-0.2,12.4c0.5,1.4,1.6,3,3.1,2.7 C464.1,302,464.6,301.4,465.1,300.9z"/>
            </g>
            <g>
              <path class="st18" d="M558.4,207.5c-3.6-4-9.7-5-14.9-3.6s-9.7,4.7-13.9,8.1c-16.5,13.3-32.3,28.6-48.5,43.2 c4.2,13.3,13.3,25,22.2,36c16.6-12.2,31.5-26.7,44.3-42.8c6.3-8,12.1-16.7,13.8-26.7C562.1,216.8,561.7,211.2,558.4,207.5z"/>
            </g>
            <g>
              <path class="st33" d="M561.1,243.9c6.9-9,4.1-24.3,4-34.7c0-2.4-0.1-4.9-1.1-7.1c-1.6-3.5-5.4-5.6-9.3-6.2 c-14-2-24.9,10.2-33.8,19.2c-12,12.1-24,24.2-36,36.3c-0.7,0.7-1.4,1.4-1.6,2.4c-0.2,1,0.3,2,0.8,2.9 c7.9,14.9,21.5,28,38.2,30.4c1.5,0.2,3.1,0.3,4.5-0.2c1.7-0.6,2.9-2.1,4.1-3.4c4.4-5.2,8.8-10.4,13.1-15.6 C550.5,260.3,556.8,252.7,561.1,243.9z"/>
            </g>
            <g>
              <path class="st34" d="M522.4,287.1c1.5,0.2,3.1,0.3,4.5-0.2c1.7-0.6,2.9-2.1,4.1-3.4c1.6-2,3.3-3.9,4.9-5.9 c1.9-18.4,3.7-36.7,5.4-55.1c-13.4,18.4-25.6,37.7-36.5,57.7C510.1,283.7,516.1,286.2,522.4,287.1z"/>
            </g>
            <g>
              <path class="st35" d="M522.7,377c-25.9,0.2-51.8-0.5-77.7-2c-20-1.1-40.4-12.5-39-35.5c0.4-5.8,2.2-11.8,6.3-16 c7.8-7.9,23.4-3.3,33.5-3.2c13.7,0.1,27.3,0.3,41,0.4c9.3,0.1,18.6,0.2,27.9,0.3c10.8,0.1,21.7,0.2,32.5,0.8 c10,0.5,22.7-0.5,32.2,1.7c2.4,0.5,4.6,2,5.5,4.3c0.5,1.4,0.5,2.9,0.4,4.4c-1.2,15.1-4.9,34.4-20.3,41.5 c-5.6,2.6-11.9,2.8-18.1,3C538.9,376.8,530.8,376.9,522.7,377z"/>
            </g>
            <g>
              <g>
                <path class="st19" d="M460.6,264.9c1.5,3.9,3,7.8,4.5,11.7c4,10.3,9,19.6,12.7,30.1c0.8,2.2,1.5,4.3,2.1,6.5 c0.3,1,0.4,2.2-0.1,3.1c-0.7,1.2-2.2,1.6-3.6,1.8c-3.2,0.4-6.5,0.3-9.7,0.4c-14.6,0.3-29.4-0.3-44.1-0.5 c-6,0-12.1-0.1-18.1-0.2c-4.4-0.1-10.5,1.1-14.4-1.6c-1.7-1.2-2.8-3-3.8-4.7c-3.9-6.5-7.1-13.1-10.1-20 c-5.1-11.3-9-23.3-13.5-34.9c-1-2.5-3.5-6.9-0.3-8.9c1.3-0.8,3-0.9,4.6-0.9c25.8-0.4,51.7-0.8,77.5-1.2 c1.8,0,3.7-0.1,5.5,0.6c4,1.5,6,5.9,7.5,9.9C458.3,259.1,459.4,262,460.6,264.9z"/>
              </g>
              <g>
                <path class="st19" d="M415.7,328.9c33.1-0.4,66.3-0.9,99.4-1.3c3.5,0,7.3-0.2,10.2-2.1c2.9-2,4.3-6.5,1.8-9.1 c-1.4-1.4-110.7-0.2-131.7,0.7c-0.9,2.6,0.1,5.3,2,7.3C402.4,329.5,409.1,328.9,415.7,328.9z"/>
              </g>
            </g>
            <g>
              <g>
                <path class="st36" d="M478.1,367.1c2-2.1,4.4-3.7,7.1-4.6c2.1-0.7,4.4-0.9,6.7-0.9c28.9-0.3,35.9,32.7,30,54.9 c-7.4,27.3-13.8,55-19.2,82.8c-0.5,2.4-1,4.9-2.6,6.7c-2.1,2.3-5.4,2.8-8.4,3.3c-6.3,0.9-12.7,1.8-19,1 c-3.3-0.4-22.4-7.1-22.3-10.6c0.5-17.8,3.4-34.3,6.5-51.8c3.4-18.9,7.5-37.7,11.7-56.5c1.4-6.3,2.7-13,5.7-18.8 C475.3,370.5,476.6,368.7,478.1,367.1z"/>
              </g>
              <g>
                <path class="st36" d="M625.4,366.1c-13.3,12.4-37.5,17.2-54.4,22.5c-20.9,6.6-42.2,11.9-64.1,13.8 c-7.5,0.6-15.5,0.8-22.1-2.8c-6.6-3.6-11-10.8-11.1-18.3c-0.4-15.7,16.1-23.4,28.1-29.2c11.8-5.8,23.5-11.5,35.3-17.3 c13.9-6.8,28.3-13.8,43.8-14.7c9.7-0.6,19.3,1.2,28.9,3c9.3,1.7,18.6,3.5,27.8,5.2C636.8,341.8,635.4,356.8,625.4,366.1z"/>
              </g>
            </g>
            <g>
              <path class="st33" d="M619.2,190.8c-10.9-11.1-26.6-8.7-40.2-5.9c-12.2,2.4-29.7,7.6-39.1,16.1c-5.8,5.3-9,13-10.3,20.7 c-2.2,14.1-2.6,30-2.6,44.2c0,18,0.6,36,1.7,53.9c0.1,1.3,0.2,2.7,1,3.7c0.9,1.1,2.3,1.5,3.6,1.8c20.5,5.1,40.1,3.5,60.8,4 c3.3,0.1,6.5,1.3,9.8,2.3c11.4,3.4,23.8,3.5,35.2,0.2c-2.3-40.3-4.5-81-11.7-120.8C626.1,203.8,624.4,196.1,619.2,190.8z"/>
            </g>
            <g>
              <path class="st34" d="M594.2,329.4c3.3,0.1,6.5,1.3,9.8,2.3c11.4,3.4,23.8,3.5,35.2,0.2c-2.3-40.3-4.5-81-11.7-120.8 c-1.2-6.4-2.6-13-6.4-18.2c-0.2,0-0.4,0-0.6,0.1c-3.2,0.4-6.1,1.9-8.9,3.4c-2.4,1.3-5,2.9-6.3,5.3c-1.6,2.9-1.1,6.5-1.7,9.8 c-0.7,3.6-2.9,6.7-4.5,9.9c-2,4-1.2,6.7-1.5,10.8c-0.3,3.9-1.9,8-2.7,11.8c-1.5,8.1-2.5,16.3-3.5,24.5 c-2.5,20.3-4.9,40.5-7.4,60.8C587.3,329.3,590.7,329.4,594.2,329.4z"/>
            </g>
            <g>
              <path class="st16" d="M642.5,291.7c0.9-11.5,1-23.1,0.5-34.6c-0.6-12.2,0.3-27.1-5.2-38.2c-2.4-4.9-6.2-9.3-11.2-11.4 c-2.6-1.1-5.5-1.5-8.1-0.7c-3.6,1.1-6.3,4.3-7.7,7.8c-1.4,3.5-1.6,7.4-1.9,11.1c-0.8,12.2-1.8,24.5-2.4,36.7 c-0.7,11.9,0.2,24.3-2.3,35.9c-23.1-0.8-46.2-3.4-69-7.7c-2.1,8-4.2,15.9-6.3,23.9c-1,3.7,30.4,10.5,33.9,11.5 c16.9,4.9,34.2,9.3,51.9,9.6c6,0.1,12.1-3,16.6-6.9c6.9-5.8,8.9-15.6,10-24.6C641.8,300.2,642.2,295.9,642.5,291.7z"/>
            </g>
            <g>
              <path class="st18" d="M642.6,291.2c0.8-11.3,1-22.7,0.4-34c-0.6-12.2,0.3-27.1-5.2-38.2c-2.4-4.9-6.2-9.3-11.2-11.4 c-2.3-1-5-1.4-7.4-0.9c-2.5,1.8-5,3.7-7.3,5.8c-0.4,0.7-0.8,1.4-1.1,2.2c-1.4,3.5-1.6,7.4-1.9,11.1 c-1.3,19.1-2.8,37.9-3.3,56.9C617.2,288.1,629.9,291.1,642.6,291.2z"/>
            </g>
            <g>
              <path class="st35" d="M570.9,388.7c0.7-1.9,1.2-3.9,1.6-5.9c1.2-6.2,2.5-12.5,2-18.9c-0.5-6.3-3-12.8-8-16.7 c-3.4-2.7-7.7-4-11.9-5.2c-7-2-14.2-4.1-21.4-5.3c-10.4,5.1-20.8,10.2-31.3,15.3c-6.3,3.1-13.9,6.7-19.6,11.7 c-1.5,0.9-2.9,2-4.2,3.3c-1.5,1.6-2.8,3.4-3.8,5.4c-3.1,5.8-4.3,12.5-5.7,18.8c-0.7,3.1-1.4,6.3-2.1,9.4 c17.5,8.1,35.6,15.2,54,21.1c0.5-1.8,0.9-3.6,1.4-5.4c1.3-5,2-10.5,2-16.1C539.7,397.7,555.4,393.5,570.9,388.7z"/>
            </g>
            <g>
              <path class="st19" d="M495.6,496.7c-4.3-3.8-9.6-6.1-15-8c-3.7-1.3-7.4-2.6-11.3-2.9c-6.9-0.5-13.9,2.4-18.7,7.4 c-0.1,2.1-0.2,4.2-0.3,6.3c-0.1,3.5,19,10.2,22.3,10.6c6.3,0.8,12.7-0.1,19-1c3-0.4,6.3-1,8.4-3.3c0.4-0.4,0.7-0.9,1-1.5 C499.9,501.5,498,498.8,495.6,496.7z"/>
            </g>
            <g>
              <path class="st33" d="M589.4,263.1c1.6-20.1,3.1-40.2,4.7-60.4c0.3-4.5,0.7-9.1,2.9-13c4.8-8.7,17-6.5,24.6-3.4 c11.2,4.6,18.1,13,21.6,24.4c5.8,19,11.6,38.7,8.9,58.3c-0.1,0.6-0.2,1.2-0.5,1.6c-0.5,0.5-1.2,0.7-1.9,0.8 c-10.5,1.8-20.5,4.6-31.3,4.7c-10.1,0.1-19.8-2.8-29.8-2.5C588.8,270.1,589.1,266.6,589.4,263.1z"/>
            </g>
            <g>
              <path class="st36" d="M388.4,363.9c-5.9-9.9-2.7-25.1,4.3-33.8c11.4-14.1,28.4-11.7,43.8-7.4c27.3,7.7,54.8,14.4,82.5,20.2 c2.4,0.5,4.9,1,6.7,2.7c2.3,2.1,2.8,5.4,3.2,8.4c0.8,6.3,1.7,12.7,0.8,19c-0.9,6.3-3.7,12.6-8.9,16.3 c-14.3,10.1-38.1,1.8-53.7-1.2c-18.9-3.6-37.6-8-56.3-12.4c-5.7-1.3-11.5-2.7-16.5-5.9C391.8,368.3,389.8,366.3,388.4,363.9z "/>
            </g>
            <g>
              <path class="st19" d="M525.7,345.7C525.7,345.7,525.7,345.6,525.7,345.7c-7.8,0.6-15.7,4-19.8,10.7c-1.6,2.7-2.6,5.8-3.4,8.8 c-1.8,6.5-3.3,13.2-2.2,19.8c0.6,3.3,2,6.6,4.1,9.2c6-0.2,11.7-1.5,16.3-4.8c5.2-3.7,8-10,8.9-16.3c0.9-6.3,0.1-12.7-0.8-19 C528.5,351.1,528,347.7,525.7,345.7z"/>
            </g>
            <g>
              <path class="st16" d="M482.7,527.5c0,0.2-0.1,0.3-0.1,0.5c-1.6,6.3-0.4,13.3-7.2,16.7c-5.8,2.9-13.7,2-19.7,0.4 c-8.2-2.2-15.8-6.2-24.2-7.5c-7.4-1.2-15-0.3-22.3-2.2c-6-1.5-30.4-13.8-17.8-22.1c2.5-1.6,5.5-2,8.5-2.3 c15.6-1.4,31.5-2.3,47.1-3.2c3.4-0.2,6.4-1.3,9.8-1.4c1.1-4,2.6-8,4.5-11.7c0.3-0.6,0.6-1.2,1.2-1.5c0.5-0.3,1.2-0.3,1.8-0.2 c8.8,0.6,18.2,1.3,25.1,6.8c0.6,0.5,1.2,1,1.3,1.8c0.1,0.5-0.1,1.1-0.2,1.6C487.9,511.1,484.9,519.2,482.7,527.5z"/>
            </g>
            <g>
              <path class="st16" d="M543.5,359.8c7.1,0.4,13.7-0.6,17.7,6c3.4,5.5,3.1,13.4,2,19.6c-1.5,8.3-4.8,16.3-5.4,24.7 c-0.6,7.5,0.9,15-0.3,22.4c-1,6.1-11.2,31.4-20.5,19.6c-1.8-2.3-2.5-5.3-3-8.3c-2.8-15.4-4.9-31.2-7.2-46.7 c-0.7-4.6-2.1-10.2-6.8-12.1c-3.6-1.5-9.7,2.4-12.2-1.7c-0.6-0.9-0.7-2.1-0.7-3.2c-0.2-5.8,0.6-11.5,2.4-17 c0.8-2.5,1.9-5,3.9-6.7C520,350.5,535.6,359.3,543.5,359.8z"/>
            </g>
            <g>
              <path class="st16" d="M577.2,134.7c2.6,13,4.5,27.2,8.8,39.7c0.7,2.1,1.5,4.2,3,5.8c1.5,1.6,3.7,2.7,5.8,2.3 c-1.4,9.7-3.8,19.8-10,27.4c-6.2,7.6-17.2,12.2-26.2,8.3c-2.3-1-4.3-2.4-6.2-4c-5.1-4.2-9.3-9.7-10.4-16.2 c10.8,0.8,2.2-35.2,0.9-40.7c-0.4-1.7-0.8-3.5-0.3-5.1c0.7-2.3,2.9-3.7,4.9-4.9c7.8-4.5,15.9-8.6,24.2-12.1 c2.1-0.9,5.8-0.6,5.3,1.6"/>
            </g>
            <g>
              <path class="st18" d="M576.1,135.1c-1.1-0.5-3.1-0.4-4.4,0.1c-8.3,3.6-16.4,7.6-24.2,12.1c-2,1.2-4.2,2.6-4.9,4.9 c-0.5,1.7-0.1,3.4,0.3,5.1c2.5,11.1,4,22.4,4.4,33.8c0,1,0,2-0.1,3c0.3,0.1,0.5,0.3,0.8,0.4c2.1,1,4.3,1.6,6.6,1.6 c3.5,0,7-1.5,9.8-3.6c6.5-4.8,10.2-12.6,11.6-20.5c1.2-6.6,1.5-13.3,1.3-19.9C577.3,147.2,578.7,139.4,576.1,135.1z"/>
            </g>
            <g>
              <path class="st16" d="M508.4,118.2c-3,11.9-1,24.3,1,36.4c1.9,11.5,4.5,24.2,13.9,31c11.2,8.1,27.8,3.9,37.5-5.9 c9.7-9.8,14-23.6,17.2-37c2.6-10.9,4.6-22.6,0.8-33.1c-3.3-8.9-10.9-16.1-19.9-18.9C538.3,84.3,513.7,97.2,508.4,118.2z"/>
            </g>
            <g>
              <path class="st19" d="M572,126.2c0.2,0.4,0.3,0.8,0.4,1.3c2.2,9.4,4.2,18.5,7.5,27.5c0.2,0.6,0.5,1.3,1,1.7 c1.1,0.8,2.7,0,3.3-1.1c0.6-1.2,0.6-2.6,0.6-3.9c0-5.7,1.4-11.4,4-16.4c1-2,2.2-3.9,3-6c1.5-3.9,0.8-9.3-0.9-13.1 c-0.5-1-7.2-10-8.3-8.7c5.5-6.3,2.9-17-3.8-22c-6.7-5-16-5-24-2.6c-1,0.3-2.1,0.7-3.1,0.5c-0.9-0.2-1.7-0.8-2.5-1.3 c-4.4-2.8-10.1-3.2-15-1.6c-4.5,1.5-8.7,8.7-13.1,8.3c-2.1-0.2-4-1.2-6-1.5c-3.6-0.6-7.4,0.9-10,3.6 c-2.6,2.6-4.1,6.2-4.8,9.8c-4.5-2.6-10.6-2.5-14.9,0.6c-4.2,3.1-6.3,9-4.5,13.9c0.8,2.3,2.3,4.2,3.8,6.1 c1.5,1.9,3,3.8,4.9,5.1c3.8,2.5,8,1.1,11.3-1.6c1.9-1.6,4-3.7,6.3-3.1c1.2,0.3,2.1,1.4,3.1,2.2c9.7,7.9,17.9-2.6,21.1-10.9 c0.9,4.6,6.8,6.4,11.4,5.5c4.6-0.9,8.9-3.4,13.6-3.7c0.2,3.1,1,6.2,3,8.5c2,2.3,5.3,3.7,8.2,2.7c1.4-0.4,3-1.3,4.1-0.4 C571.8,125.8,571.9,126,572,126.2z"/>
            </g>
            <g>
              <path class="st18" d="M517.3,160.9c0,0.7,0,1.5-0.4,2.1c-0.5,0.6-1.2,0.7-1.9,0.8c-2,0.2-4,0-5.9,0.6 c-1.9,0.6-3.7,2.2-3.4,4.2c0.2,1.6,1.7,2.8,3.3,3.1c1.6,0.3,3.2,0,4.7-0.4c4-1,8.6-2.8,9.6-6.8c0.4-1.6,0.1-3.3-0.1-4.9 c-0.8-4.8-1.4-9.3-2.9-14c-0.3-0.8-0.6-1.6-1.4-1.8c-0.8-0.2-1.6,0.4-2,1.1c-0.3,0.8-0.3,1.6-0.3,2.4 C516.7,151.9,517.2,156.4,517.3,160.9z"/>
            </g>
            <g>
              <path class="st19" d="M530,123.9c1.8,0.1,3.6,0.1,5.4,0.2c2.1,0.1,4.4,0.2,5.9,1.8c0.3,0.3,0.5,0.7,0.6,1.1 c0.1,0.6-0.4,1.2-0.9,1.6c-0.5,0.3-1.2,0.5-1.8,0.6c-2.1,0.4-15.5,3.5-15-2c-0.3-0.8-0.4-1.9,0.2-2.6 c0.6-0.8,1.8-0.8,2.8-0.8C528.1,123.9,529.1,123.9,530,123.9z"/>
            </g>
            <g>
              <path class="st19" d="M513.4,131.1c-0.3-0.9-1.3-1.5-2.2-1.9c-0.6-0.3-1.1-0.6-1.8-0.6c-0.8,0-1.5,0.6-2.1,1.1 c-0.8,0.8-1.6,1.7-2.3,2.6c-0.5,0.6-0.9,1.3-1,2.1s0.2,1.7,0.9,2C506.3,137.1,514.2,133,513.4,131.1z"/>
            </g>
            <g>
              <g>
                <path class="st19" d="M533,142.1c1.3,0,1.3-2,0-2C531.7,140.1,531.7,142.1,533,142.1L533,142.1z"/>
              </g>
            </g>
            <g>
              <g>
                <path class="st19" d="M512.9,146.9c1.3,0,1.3-2,0-2C511.6,144.9,511.6,146.9,512.9,146.9L512.9,146.9z"/>
              </g>
            </g>
            <g>
              <g>
                <path class="st19" d="M525.8,172.6c1.5,1.8,3.4,3.8,5.9,3.5c1.2-0.1,2.3-0.7,3-1.8c0.6-1.1,0.7-2.5,0.8-3.7 c0-1.6-0.2-3.2-0.7-4.8c-0.4-1.2-2.3-0.7-1.9,0.5c0.4,1.4,0.7,2.9,0.6,4.3c0,1-0.1,2.4-0.9,3.1c-0.7,0.6-1.8,0.4-2.6,0 c-1.1-0.6-1.9-1.6-2.7-2.6c-0.3-0.4-1.1-0.4-1.4,0C525.4,171.6,525.5,172.2,525.8,172.6L525.8,172.6z"/>
              </g>
            </g>
            <g>
              <path class="st16" d="M583.4,138.9c-2.8,3.5-5.9,6.7-9.5,9.4c-1.9-3.7-3.8-7.4-5.7-11c-0.4-0.8-0.8-1.6-0.8-2.5 c0-1.7,1.6-2.9,3-3.9c3.3-2.2,8.8-7.8,13.1-5.6c2.4,1.2,3.5,4.1,3.2,6.7C586.5,134.5,585.1,136.8,583.4,138.9z"/>
            </g>
            <g>
              <path class="st16" d="M543.7,323c2.7-4.8,4.8-9.9,6.3-15.2c0.4-1.5,0.8-3.2,0-4.5c-1.1-2.2-4.1-2.4-6.6-2.3 c-0.3-3.6-1.2-8-4.6-9.2c-0.9-0.3-1.9-0.4-2.7-1c-0.7-0.5-1.1-1.3-1.6-2.1c-4.6-6.8-14.8-4.7-20-0.1 c-7.1,6.4-13.7,17.2-17.7,25.8c-0.6,1.3-1.2,2.6-1,4c0.1,1.4,1.1,2.8,2.5,2.9c0.9,0,1.7-0.4,2.4-0.9 c6.2-4.2,10.2-10.1,14.1-16.3c-2.4,3.8-3.3,12.2-4,16.7c-0.1,0.9-0.2,2,0.5,2.7c0.7,0.7,1.8,0.7,2.7,0.2c0.8-0.4,1.5-1.2,2-2 c3.8-4.9,7.6-9.8,11.4-14.7c-3.3,4.4-5.9,11.4-5,16.9c2.5,0.7,5-1,6.9-2.7c3.9-3.6,7.2-7.8,9.8-12.4 c-1.7,3.8-2.9,7.8-3.4,11.9c-0.2,1.5-0.3,3.2,0.4,4.6c0.6,1.4,2.2,2.5,3.7,2.1c1.2-0.3,2-1.5,2.7-2.5 C542.9,324.4,543.3,323.7,543.7,323z"/>
            </g>
            <g>
              <path class="st18" d="M557.5,432.5c1.2-7.4-0.3-14.9,0.3-22.4c0.6-8.4,3.9-16.4,5.4-24.7c1.1-6.1,1.4-14-2-19.6 c-2.2-3.6-5.2-4.9-8.6-5.5c-15,11.6-1.2,31.5-4.5,46.2c-1.5,6.7-6.5,12.1-9.7,18.2c-2.8,5.5-4.3,11.7-4.1,17.9 c0.3,9.1,6.2,16.4,14,9.1C553,447.4,556.5,438.8,557.5,432.5z"/>
            </g>
            <g>
              <path class="st18" d="M477,542.2c-10.1-2.9-20.2-5.8-30.3-8.7c-4.4-1.3-8.8-2.5-13.3-3.3c-4.1-0.7-8.3-0.9-12.4-1.8 c-11.3-2.7-21.8-11-32.9-11.3c-2.5,7.8,16,17,21.1,18.3c7.3,1.8,14.9,1,22.3,2.2c8.3,1.4,16,5.3,24.2,7.5 c6,1.6,13.9,2.6,19.7-0.4c1.2-0.6,2.1-1.3,2.9-2.1C477.8,542.4,477.4,542.3,477,542.2z"/>
            </g>
          </g>
        </g>
        <g>
          <g>
            <path class="st37" d="M166.8,169.3c32.4,2,56.6,21.4,76.3,45.8c9.9,12.3,15.4,28,15.3,43.7c0,9.4-3.2,20.2-11.9,23.6 c-4.8,1.9-10.2,1-14.9-1.1c-4.6-2.1-8.6-5.5-12.5-8.8c-1.6,6.7-3.5,14-9,18.3c-5.9,4.6-14.8,4.2-21.1,0.3 c-6.4-4-10.5-10.9-12.6-18.1c-2.1-7.2-2.4-14.8-2.6-22.3C173,223.5,172.5,196,166.8,169.3z"/>
          </g>
          <g>
            <g>
              <path class="st10" d="M177.7,249.1c3.5-0.5,6.8-1.7,9.7-3.8c0.4-0.3,0.7-0.9,0.4-1.4c-0.3-0.4-0.9-0.7-1.4-0.4 c-2.6,1.9-5.5,3.1-8.7,3.5c-0.5,0.1-1,0.4-1,1C176.7,248.6,177.2,249.2,177.7,249.1L177.7,249.1z"/>
            </g>
          </g>
          <g>
            <g>
              <path class="st10" d="M193.3,269.9c4.3,0.8,8.6,1.7,12.9,2.5c1.3,0.2,1.8-1.7,0.5-1.9c-4.3-0.8-8.6-1.7-12.9-2.5 C192.6,267.7,192,269.7,193.3,269.9L193.3,269.9z"/>
            </g>
          </g>
          <g>
            <g>
              <path class="st10" d="M186.5,253c5.7,2.1,11.6,3.5,17.7,4.2c1.3,0.1,1.3-1.9,0-2c-5.9-0.7-11.6-2-17.2-4.1 C185.9,250.6,185.3,252.6,186.5,253L186.5,253z"/>
            </g>
          </g>
          <g>
            <g>
              <path class="st10" d="M179.2,232.9c6.3,1.8,12.5,3.8,18.7,6c1.2,0.4,1.7-1.5,0.5-1.9c-6.1-2.2-12.4-4.2-18.7-6 C178.4,230.6,177.9,232.5,179.2,232.9L179.2,232.9z"/>
            </g>
          </g>
          <g>
            <path class="st37" d="M104.5,317.8c6.9-31,27.2-58.8,54.6-75c-13.6-4.2-28.5-5.1-42.1-0.7c-13.8,4.5-28.7,16.3-30.9,31.5 C83.8,289.7,92.5,307.4,104.5,317.8z"/>
          </g>
          <g>
            <path class="st38" d="M182.1,254.6c-7.4,1.1-14.6-1.9-21.5-4.8c-2.8,7.9-6.2,16.5-13.6,20.4c-6.6,3.5-14.7,2.2-21.8-0.1 s-14.2-5.4-21.6-5.4c-5.9,0-11.7,2-16.3,5.6c0.6-4.8,2.3-9.4,4.9-13.5c3.7-5.7,9.1-10,14.8-13.7c15.5-10.1,33.7-16,52.2-17 c9.2-0.5,20.1-0.1,28.1,5C198.4,238.2,196.1,252.6,182.1,254.6z"/>
          </g>
          <g>
            <g>
              <path class="st10" d="M148.8,253.7c-3.9,3.8-7.8,7.6-11.7,11.5c-0.9,0.9,0.5,2.3,1.4,1.4c3.9-3.8,7.8-7.6,11.7-11.5 C151.1,254.2,149.7,252.8,148.8,253.7L148.8,253.7z"/>
            </g>
          </g>
          <g>
            <g>
              <path class="st10" d="M133.1,252c-3.9,3.4-8.2,6.4-12.8,8.9c-1.1,0.6-0.1,2.3,1,1.7c4.7-2.6,9.1-5.6,13.2-9.2 C135.4,252.6,134,251.2,133.1,252L133.1,252z"/>
            </g>
          </g>
          <g>
            <g>
              <path class="st10" d="M119.9,248.2c-5.5,2.2-10.8,4.7-15.9,7.7c-1.1,0.7-0.1,2.4,1,1.7c4.9-2.9,10.1-5.4,15.4-7.5 C121.6,249.7,121.1,247.7,119.9,248.2L119.9,248.2z"/>
            </g>
          </g>
          <g>
            <g>
              <path class="st10" d="M157.7,237.7c1.5-1.9,3-3.7,4.6-5.6c0.3-0.4,0.4-1,0-1.4c-0.4-0.3-1.1-0.4-1.4,0 c-1.5,1.9-3,3.7-4.6,5.6c-0.3,0.4-0.4,1,0,1.4C156.6,238,157.3,238.1,157.7,237.7L157.7,237.7z"/>
            </g>
          </g>
          <g>
            <g>
              <path class="st10" d="M145.9,232.5c0,0-0.1,0-0.1,0c0.1,0,0.2,0,0.3,0c-0.1,0-0.3,0-0.4,0 C145.7,232.5,145.8,232.6,145.9,232.5c-0.2,0-0.3,0-0.5-0.1c0.1,0,0.2,0.1,0.2,0.1c-0.2-0.1-0.3-0.2-0.5-0.3 c0.1,0.1,0.1,0.1,0.2,0.2c-0.1-0.1-0.3-0.2-0.4-0.4c0.1,0.1,0.1,0.1,0.2,0.2c-0.1-0.1-0.2-0.3-0.3-0.4c0,0.1,0.1,0.2,0.1,0.2 c-0.1-0.2-0.1-0.3-0.1-0.5c0,0.1,0,0.2,0,0.3c0-0.1,0-0.3,0-0.4c0,0.1,0,0.2,0,0.3c0,0,0-0.1,0-0.1c0.1-0.3,0-0.5-0.1-0.8 c-0.1-0.2-0.4-0.4-0.6-0.5c-0.3-0.1-0.5,0-0.8,0.1c-0.2,0.1-0.4,0.3-0.5,0.6c-0.1,0.5-0.1,1,0.1,1.4c0.2,0.5,0.4,0.9,0.8,1.2 c0.3,0.3,0.8,0.6,1.2,0.7c0.5,0.2,1,0.2,1.4,0.1c0.2-0.1,0.5-0.3,0.6-0.5c0.1-0.2,0.2-0.5,0.1-0.8c-0.1-0.2-0.2-0.5-0.5-0.6 C146.4,232.5,146.2,232.5,145.9,232.5L145.9,232.5z"/>
            </g>
          </g>
          <g>
            <g>
              <path class="st10" d="M182.4,212.8c3.8,2.5,7.5,4.9,11.3,7.4c1.1,0.7,2.1-1,1-1.7c-3.8-2.5-7.5-4.9-11.3-7.4 C182.3,210.4,181.3,212.1,182.4,212.8L182.4,212.8z"/>
            </g>
          </g>
          <g>
            <g>
              <path class="st10" d="M176.3,195.1c0.1,0,0.3,0.1,0.4,0.2c0.1,0,0.2,0.1,0.1,0c0.1,0,0.1,0,0.2,0.1c0.3,0.1,0.5,0.2,0.8,0.4 c0.5,0.3,1,0.6,1.5,0.9c0.1,0.1,0.2,0.2,0.3,0.2c0,0,0.1,0.1,0.1,0.1c-0.1-0.1,0,0,0.1,0c0.2,0.2,0.4,0.4,0.6,0.5 c0.4,0.4,0.8,0.8,1.2,1.2c0.3,0.4,1.1,0.4,1.4,0c0.4-0.4,0.4-1,0-1.4c-1.6-1.9-3.7-3.3-6.1-4.2c-0.5-0.2-1.1,0.2-1.2,0.7 C175.5,194.4,175.8,194.9,176.3,195.1L176.3,195.1z"/>
            </g>
          </g>
          <g>
            <g>
              <path class="st10" d="M197,187.3c0,3,0,6,0,9c0,1.3,2,1.3,2,0c0-3,0-6,0-9C199,186,197,186,197,187.3L197,187.3z"/>
            </g>
          </g>
          <g>
            <g>
              <path class="st10" d="M212.3,197.8c-1.2,4.1-2.3,8.3-3.5,12.4c-0.3,1.2,1.6,1.8,1.9,0.5c1.2-4.1,2.3-8.3,3.5-12.4 C214.6,197.1,212.7,196.5,212.3,197.8L212.3,197.8z"/>
            </g>
          </g>
          <g>
            <g>
              <path class="st10" d="M223.7,209.9c-2.6,5.3-5.3,10.5-7.9,15.8c-0.6,1.1,1.2,2.2,1.7,1c2.6-5.3,5.3-10.5,7.9-15.8 C226,209.8,224.3,208.8,223.7,209.9L223.7,209.9z"/>
            </g>
          </g>
          <g>
            <g>
              <path class="st10" d="M232.7,225.7c-3.1,4.9-6.3,9.9-9.4,14.8c-0.7,1.1,1,2.1,1.7,1c3.1-4.9,6.3-9.9,9.4-14.8 C235.1,225.7,233.4,224.6,232.7,225.7L232.7,225.7z"/>
            </g>
          </g>
          <g>
            <g>
              <path class="st10" d="M242.7,235.5c-4,7.5-8.9,14.5-14.6,20.8c-0.9,1,0.5,2.4,1.4,1.4c5.8-6.4,10.9-13.5,14.9-21.2 C245.1,235.4,243.3,234.4,242.7,235.5L242.7,235.5z"/>
            </g>
          </g>
          <g>
            <g>
              <path class="st10" d="M244.8,268.4c-5.4,0.2-10.9,0.4-16.3,0.6c-1.3,0-1.3,2,0,2c5.4-0.2,10.9-0.4,16.3-0.6 C246.1,270.4,246.1,268.4,244.8,268.4L244.8,268.4z"/>
            </g>
          </g>
          <g>
            <g>
              <path class="st19" d="M191.4,455c2,29.5,5.9,58.8,11.2,87.6c6.4,4.7,15.1,6,23.2,6.5c8.9,0.6,17.9,0.5,26.8-0.3 c7.5-0.7,15.4-2.1,21.6-6.1c5.3-28.8,9.3-58.3,11.3-87.7H191.4z"/>
            </g>
            <g>
              <path class="st2" d="M280.2,451.6c-13.2-1.7-26.5-1.3-39.9-1.6c-14.3-0.3-29.1,0.2-43,1.9c-2.8,0.4-6.5,1.5-5.8,3.3 c0.4,1,1.9,1.6,3.4,2c11.6,3.3,27.8,2.7,40.4,2.7c14.2,0,33.5,0.8,46.6-3.1c1.8-0.5,3.7-1.4,3.7-2.6 C285.5,452.7,282.5,451.9,280.2,451.6z"/>
            </g>
          </g>
          <g>
            <g>
              <path class="st19" d="M181.1,320.9c5.4-5.5,14.2-11.8,22.4-8.8c4.3,1.6,7,5.7,8.6,9.8c2.5,6.4,2.9,13.7,3.8,20.5 c3.8,29.1,7.3,58.2,10.7,87.4c1.9,16.3,3.7,32.6,5.5,48.9c0.1,1.3,2.1,1.3,2,0c-3.3-30.3-6.8-60.6-10.5-90.9 c-1.9-15.1-3.8-30.3-5.7-45.4c-0.9-7-1.3-14.4-3.8-21c-1.7-4.3-4.3-8.5-8.6-10.6c-9.2-4.5-19.5,2.3-25.7,8.7 C178.7,320.4,180.2,321.8,181.1,320.9L181.1,320.9z"/>
            </g>
          </g>
          <g>
            <g>
              <path class="st19" d="M162.9,291.1c10.5-4.6,22.6,1.2,29.5,9.4c8,9.5,11.3,22.2,14.7,33.9c7.7,26.6,13.2,53.9,16.3,81.5 c1.8,15.5,2.8,31.1,3,46.7c0,1.3,2,1.3,2,0c-0.5-28.7-3.5-57.4-9-85.6c-2.7-14-6-27.8-9.9-41.5c-3.4-12.1-6.8-25.1-14.7-35.1 c-7.5-9.7-20.9-16.2-32.9-11C160.7,289.9,161.8,291.6,162.9,291.1L162.9,291.1z"/>
            </g>
          </g>
          <g>
            <g>
              <path class="st19" d="M112.3,239.7c9.7-0.7,19.5,0.1,29,2.3c8.1,1.9,16.1,4.7,22.9,9.7c12.3,8.9,20.7,22.4,28,35.4 c3.8,6.9,7.6,14,10.8,21.2c3.9,8.8,7.1,17.9,9.6,27.1c5.3,19.1,8.1,38.9,9.5,58.7c1.5,20.5,1.7,41,2.2,61.5 c0.1,2.5,0.1,5.1,0.2,7.6c0,1.3,2,1.3,2,0c-0.6-20.9-0.7-41.9-2-62.8c-1.2-20.2-3.6-40.4-8.5-60c-2.4-9.4-5.3-18.6-9-27.6 c-3.2-7.9-7-15.4-11-22.9c-7.2-13.4-15.4-27.1-27.1-37c-2.7-2.3-5.6-4.4-8.8-6.1c-3.7-2-7.7-3.5-11.7-4.8 c-9.3-3-19.1-4.5-28.9-4.5c-2.5,0-4.9,0.1-7.4,0.3C111,237.8,111,239.8,112.3,239.7L112.3,239.7z"/>
            </g>
          </g>
          <g>
            <path class="st38" d="M223.6,337.8c-1.2-9.1-8.2-15.7-16.7-18.5c-3.7-1.2-8.9-2.4-12.8-2.2c-2,0.1-13.7,2.8-13.8,5 c0.4-28.2-35.8-15.3-47.5-4.5c-3.9,3.6-7.4,7.7-9.6,12.5c-2.4,5.2-3.2,11-3.8,16.7c-1.3,12.7-2,25.6-0.1,38.3 c1,6.6,2.6,13,4.2,19.4c3.9,15.5,7.8,31.1,11.7,46.6c1.1,4.2,2.4,8.8,6,11.2c1.7-9.8,8.3-18,14.6-25.7 c13.6-16.5,27.1-33,42.6-47.8c4.6-4.4,9.5-8.7,13.2-13.9c2.9-4.1,5-8.7,7-13.3C221.8,354,224.7,345.9,223.6,337.8z"/>
          </g>
          <g>
            <path class="st38" d="M364.6,202.7c-29.1-14.2-59.8-9.3-89,2.1c-14.7,5.8-27.2,16.7-34.9,30.5c-4.6,8.2-7.2,19.1-1.3,26.4 c3.2,4,8.4,6,13.5,6.4c5.1,0.4,10.2-0.5,15.2-1.5c-1.9,6.6-3.8,13.9-1.2,20.3c2.9,6.9,10.8,11,18.3,10.7s14.5-4.3,19.8-9.5 s9.4-11.7,13.3-18.1C332.5,246.7,346.6,223.1,364.6,202.7z"/>
          </g>
          <g>
            <path class="st38" d="M105.2,383.8c6.4-25.6,13.7-48.4,31.2-68.8c7.8-9.2,16.7-17.9,26.4-25c-1.3-4.6-4.9-8.4-9.2-10.7 c-16.4-9.1-40.7,2.3-52.2,15.2c-12.3,13.8-17.8,32.3-21.3,50.5c-2.6,13.8-4.3,28-1.8,41.7c2.5,13.8,9.8,27.2,21.7,34.5 C99.4,408.6,102.2,396.1,105.2,383.8z"/>
          </g>
          <g>
            <g>
              <path class="st19" d="M285,316.6c-1.7-4.5-3.9-9.4-8-12.2c-3.8-2.7-8.7-2.3-12.3,0.5c-3.9,3-6.1,7.8-7.7,12.4 c-2.3,6.3-4.4,12.7-6.3,19.1c-7.7,25.9-12.5,52.8-14.1,79.8c-0.9,15.3-0.9,30.6,0.1,45.8c0.1,1.3,2.1,1.3,2,0 c-1.7-25.9-0.6-52,3.3-77.6c1.9-12.6,4.6-25.2,7.8-37.5c1.7-6.3,3.5-12.6,5.6-18.8c1.7-5.3,3.3-11,6.1-15.9 c2.4-4.3,6.5-8.8,11.9-7.2c5.2,1.5,7.8,7.7,9.6,12.3C283.5,318.4,285.5,317.9,285,316.6L285,316.6z"/>
            </g>
          </g>
          <g>
            <g>
              <path class="st19" d="M364.7,201.9c-18.2,3.3-35.7,10.2-51.5,19.8c-16,9.7-30.4,22.1-42,36.7c-5.7,7.2-10.7,14.9-14.9,23 c-2.2,4.3-4,8.6-5.8,13c-2.1,5.1-4.2,10.2-5.9,15.5c-1.7,5.5-2.8,11-3.6,16.7c-0.8,5.9-1.6,11.8-2.3,17.8 c-1.4,12-2.5,24.1-3.4,36.2c-1.7,24.3-2.1,48.6-1.4,72.9c0.1,3,0.2,6,0.3,9c0.1,1.3,2.1,1.3,2,0c-1-24-0.8-48,0.5-71.9 c0.7-11.9,1.6-23.8,2.8-35.7c0.6-6,1.3-12,2.1-18.1c0.8-5.9,1.4-11.9,2.6-17.7c2.1-10.5,6.5-20.7,10.8-30.4 c3.7-8.3,8.2-16.1,13.5-23.5c10.8-15,24.6-28,40-38.2c15.3-10.1,32.4-17.7,50.3-21.9c2.1-0.5,4.3-0.9,6.4-1.3 C366.5,203.6,365.9,201.7,364.7,201.9L364.7,201.9z"/>
            </g>
          </g>
          <g>
            <g>
              <path class="st19" d="M166.9,169.7c6.7,8.5,13.5,17,20.1,25.6c6.1,7.9,11.7,16,16.1,24.9c8.1,16.5,12.5,34.6,15.5,52.7 c2.9,18.1,4.3,36.5,5.6,54.8c1.6,21.5,3,43.1,3.7,64.7c0.7,21.9,1,43.9,0.7,65.8c0,2.8-0.1,5.5-0.1,8.3c0,1.3,2,1.3,2,0 c0.4-22.2,0.4-44.5-0.3-66.7c-0.6-22.2-1.8-44.4-3.5-66.6c-1.4-18.2-2.6-36.5-5.2-54.6c-2.6-18.3-6.6-36.5-13.9-53.5 c-3.9-9-8.8-17.4-14.6-25.2c-6.3-8.6-13-16.8-19.5-25.1c-1.7-2.2-3.4-4.4-5.1-6.5C167.5,167.2,166.1,168.7,166.9,169.7 L166.9,169.7z"/>
            </g>
          </g>
          <g>
            <path class="st38" d="M319.1,330.1c3.4,4.7,6.4,9.8,8.3,15.2c2.2,6.2,2.9,12.8,3.4,19.3c2.5,28.9,2.5,59.4-11.2,85 c-3.2-9.6-7.1-19-11.5-28.1c-11.7-23.8-27.9-45.8-49.4-61.3c-8.3-6-17.5-11.2-23.6-19.4c-9.5-12.9-5.2-24.9,9.7-30 c12.8-4.4,27.7-1.8,38.3,6.6c-0.5-0.4,7.8-4.2,8.6-4.3c3.5-0.7,7.2-0.5,10.6,0.7C309.4,316.4,314.9,324.2,319.1,330.1z"/>
          </g>
          <g>
            <g>
              <path class="st19" d="M283.8,317.5c8.3,16.1,16,32.6,22.2,49.7c6.1,16.8,10.7,34.2,12.3,52c0.9,10,0.9,20-0.2,30 c-0.1,1.3,1.9,1.3,2,0c2-17.9,0.4-35.9-3.6-53.4c-4-17.7-10.3-34.7-17.6-51.3c-4.2-9.5-8.7-18.7-13.4-27.9 C284.9,315.4,283.2,316.4,283.8,317.5L283.8,317.5z"/>
            </g>
          </g>
          <g>
            <g>
              <path class="st19" d="M179.4,319.1c-11.9,16.1-21.4,33.8-28.4,52.6c-6.9,18.7-11.3,38.4-12.8,58.4 c-0.9,11.2-0.8,22.5,0.1,33.7c0.1,1.3,2.1,1.3,2,0c-1.7-19.8-0.5-39.8,3.5-59.3c3.9-19.5,10.6-38.4,19.7-56.1 c5.1-9.9,11-19.3,17.6-28.2C181.9,319.1,180.1,318.1,179.4,319.1L179.4,319.1z"/>
            </g>
          </g>
          <g>
            <g>
              <path class="st10" d="M154.1,400c2.7,5.4,5.3,10.9,8,16.3c0.6,1.2,2.3,0.1,1.7-1c-2.7-5.4-5.3-10.9-8-16.3 C155.2,397.8,153.5,398.8,154.1,400L154.1,400z"/>
            </g>
          </g>
          <g>
            <g>
              <path class="st10" d="M164.3,376.3c3,6.2,6.8,12.1,11.3,17.4c0.8,1,2.2-0.4,1.4-1.4c-4.3-5.2-8-10.9-11-17 C165.4,374.1,163.7,375.1,164.3,376.3L164.3,376.3z"/>
            </g>
          </g>
          <g>
            <g>
              <path class="st10" d="M173.7,357.2c4.9,7.1,10.7,13.6,17.2,19.4c1,0.9,2.4-0.6,1.4-1.4c-6.3-5.6-12-12-16.8-19 C174.7,355.2,173,356.2,173.7,357.2L173.7,357.2z"/>
            </g>
          </g>
          <g>
            <g>
              <path class="st10" d="M185.9,335.9c6.2,6.1,12,12.6,17.3,19.4c0.8,1,2.2-0.4,1.4-1.4c-5.4-6.8-11.1-13.3-17.3-19.4 C186.4,333.6,185,335,185.9,335.9L185.9,335.9z"/>
            </g>
          </g>
          <g>
            <g>
              <path class="st10" d="M194.9,327.1c5.8,3,11.2,7,15.8,11.6c0.9,0.9,2.3-0.5,1.4-1.4c-4.8-4.8-10.2-8.8-16.2-11.9 C194.8,324.8,193.8,326.5,194.9,327.1L194.9,327.1z"/>
            </g>
          </g>
          <g>
            <g>
              <path class="st10" d="M167.8,316.1c-4.6-1.8-9.4-2.9-14.3-3.6c-0.5-0.1-1,0.5-1,1c0,0.6,0.5,0.9,1,1 c4.7,0.6,9.4,1.8,13.8,3.5C168.5,318.5,169,316.5,167.8,316.1L167.8,316.1z"/>
            </g>
          </g>
          <g>
            <g>
              <path class="st10" d="M161.4,324.6c-7.9-0.7-15.8-0.1-23.5,1.8c-1.2,0.3-0.7,2.2,0.5,1.9c7.5-1.9,15.2-2.5,22.9-1.8 C162.7,326.7,162.6,324.7,161.4,324.6L161.4,324.6z"/>
            </g>
          </g>
          <g>
            <g>
              <path class="st10" d="M153.5,339.8c-7.7,0.7-15.4,2.3-22.8,4.5c-1.2,0.4-0.7,2.3,0.5,1.9c7.3-2.2,14.7-3.7,22.3-4.5 C154.8,341.6,154.8,339.6,153.5,339.8L153.5,339.8z"/>
            </g>
          </g>
          <g>
            <g>
              <path class="st10" d="M144.5,359c-6.4,3.4-12.7,7.1-18.8,10.9c-1.1,0.7-0.1,2.4,1,1.7c6.1-3.9,12.4-7.5,18.8-10.9 C146.7,360.2,145.7,358.4,144.5,359L144.5,359z"/>
            </g>
          </g>
          <g>
            <g>
              <path class="st10" d="M135.6,379.6c-2.3,3.2-4.5,6.4-6.8,9.6c-0.3,0.4-0.1,1.1,0.4,1.4c0.5,0.3,1.1,0.1,1.4-0.4 c2.3-3.2,4.5-6.4,6.8-9.6c0.3-0.4,0.1-1.1-0.4-1.4C136.5,379,136,379.2,135.6,379.6L135.6,379.6z"/>
            </g>
          </g>
          <g>
            <g>
              <path class="st10" d="M134.5,401.1c-0.9,2.1-1.8,4.2-2.7,6.3c-0.2,0.5-0.2,1.1,0.4,1.4c0.4,0.2,1.1,0.2,1.4-0.4 c0.9-2.1,1.8-4.2,2.7-6.3c0.2-0.5,0.2-1.1-0.4-1.4C135.5,400.5,134.8,400.6,134.5,401.1L134.5,401.1z"/>
            </g>
          </g>
          <g>
            <g>
              <path class="st10" d="M277.3,319.4c-4.5-1.3-9.1-2.1-13.8-2.4c-1.3-0.1-1.3,1.9,0,2c4.5,0.3,8.9,1.1,13.3,2.3 C278,321.7,278.5,319.8,277.3,319.4L277.3,319.4z"/>
            </g>
          </g>
          <g>
            <g>
              <path class="st10" d="M277,327.4c-8.8-0.2-17.5,1.7-25.4,5.6c-1.2,0.6-0.1,2.3,1,1.7c7.6-3.7,15.9-5.5,24.4-5.3 C278.3,329.4,278.3,327.4,277,327.4L277,327.4z"/>
            </g>
          </g>
          <g>
            <g>
              <path class="st10" d="M283.8,341.4c-5,2.3-9.5,5.7-13.1,9.9c-0.8,1,0.6,2.4,1.4,1.4c3.5-4.1,7.8-7.3,12.7-9.5 c0.5-0.2,0.6-0.9,0.4-1.4C284.8,341.3,284.3,341.2,283.8,341.4L283.8,341.4z"/>
            </g>
          </g>
          <g>
            <g>
              <path class="st10" d="M290.9,355.2c-2.7,3.2-5,6.7-6.9,10.4c-0.6,1.1,1.1,2.2,1.7,1c1.8-3.6,4-6.9,6.6-10 c0.3-0.4,0.4-1,0-1.4C292,354.9,291.3,354.8,290.9,355.2L290.9,355.2z"/>
            </g>
          </g>
          <g>
            <g>
              <path class="st10" d="M299.2,373.2c-0.9,3.2-1.8,6.4-2.8,9.6c-0.4,1.2,1.6,1.8,1.9,0.5c0.9-3.2,1.8-6.4,2.8-9.6 C301.5,372.5,299.6,371.9,299.2,373.2L299.2,373.2z"/>
            </g>
          </g>
          <g>
            <g>
              <path class="st10" d="M306.5,385.3c-0.2,2.8-0.5,5.6-0.7,8.4c0,0.5,0.5,1,1,1c0.6,0,1-0.5,1-1c0.2-2.8,0.5-5.6,0.7-8.4 c0-0.5-0.5-1-1-1C306.9,384.3,306.6,384.7,306.5,385.3L306.5,385.3z"/>
            </g>
          </g>
          <g>
            <g>
              <path class="st10" d="M295.9,319.1c2.7-0.5,5.5-0.7,8.2-0.5c0.5,0,1-0.5,1-1c0-0.6-0.5-1-1-1c-2.9-0.2-5.9,0-8.7,0.6 c-0.5,0.1-0.8,0.7-0.7,1.2C294.8,319,295.3,319.2,295.9,319.1L295.9,319.1z"/>
            </g>
          </g>
          <g>
            <g>
              <path class="st10" d="M297.6,326.4c3.7,1.5,7.5,2.8,11.3,3.9c1.2,0.4,1.8-1.6,0.5-1.9c-3.8-1.1-7.6-2.4-11.3-3.9 c-0.5-0.2-1.1,0.2-1.2,0.7C296.7,325.8,297.1,326.2,297.6,326.4L297.6,326.4z"/>
            </g>
          </g>
          <g>
            <g>
              <path class="st10" d="M305.2,339.9c4,2.2,7.9,4.5,11.9,6.7c1.1,0.6,2.1-1.1,1-1.7c-4-2.2-7.9-4.5-11.9-6.7 C305.1,337.6,304.1,339.3,305.2,339.9L305.2,339.9z"/>
            </g>
          </g>
          <g>
            <g>
              <path class="st10" d="M310.2,355.3c3.9,1.9,7.6,4.4,10.8,7.4c0.9,0.9,2.4-0.5,1.4-1.4c-3.3-3.1-7.1-5.7-11.2-7.7 c-0.5-0.2-1.1-0.1-1.4,0.4C309.6,354.4,309.8,355.1,310.2,355.3L310.2,355.3z"/>
            </g>
          </g>
          <g>
            <g>
              <path class="st10" d="M316.4,373c3,3.2,6,6.4,9,9.6c0.9,0.9,2.3-0.5,1.4-1.4c-3-3.2-6-6.4-9-9.6 C316.9,370.6,315.5,372,316.4,373L316.4,373z"/>
            </g>
          </g>
          <g>
            <g>
              <path class="st10" d="M320.2,392.5c1.9,3,3.8,6,5.7,9c0.7,1.1,2.4,0.1,1.7-1c-1.9-3-3.8-6-5.7-9 C321.2,390.4,319.5,391.4,320.2,392.5L320.2,392.5z"/>
            </g>
          </g>
          <g>
            <g>
              <path class="st10" d="M145.8,288.5c-4.9-1.5-10.2-1.7-15.2-0.5c-1.3,0.3-0.7,2.2,0.5,1.9c4.7-1.1,9.5-0.9,14.1,0.5 C146.6,290.8,147.1,288.8,145.8,288.5L145.8,288.5z"/>
            </g>
          </g>
          <g>
            <g>
              <path class="st10" d="M134.3,296.2c-6.2-0.2-12.4,1.7-17.4,5.3c-1,0.7,0,2.5,1,1.7c4.8-3.4,10.5-5.1,16.4-5 C135.6,298.3,135.6,296.3,134.3,296.2L134.3,296.2z"/>
            </g>
          </g>
          <g>
            <g>
              <path class="st10" d="M117.5,312.8c-6.4,3.1-12.4,7.1-17.8,11.8c-1,0.9,0.5,2.3,1.4,1.4c5.3-4.6,11.1-8.5,17.4-11.5 C119.6,314,118.6,312.2,117.5,312.8L117.5,312.8z"/>
            </g>
          </g>
          <g>
            <g>
              <path class="st10" d="M106,332.1c-5,4.2-8.9,9.6-11.5,15.7c-0.2,0.5,0.2,1.1,0.7,1.2c0.6,0.2,1-0.2,1.2-0.7 c2.4-5.7,6.2-10.8,10.9-14.8C108.4,332.7,107,331.3,106,332.1L106,332.1z"/>
            </g>
          </g>
          <g>
            <g>
              <path class="st10" d="M99.4,357c-3.6,6.8-6.6,13.9-8.9,21.2c-0.4,1.2,1.5,1.8,1.9,0.5c2.3-7.2,5.2-14.1,8.7-20.8 C101.7,356.9,100,355.9,99.4,357L99.4,357z"/>
            </g>
          </g>
          <g>
            <g>
              <path class="st10" d="M95.4,386.6c-1.1,3.4-2.3,6.8-3.4,10.2c-0.4,1.2,1.5,1.7,1.9,0.5c1.1-3.4,2.3-6.8,3.4-10.2 C97.8,386,95.8,385.4,95.4,386.6L95.4,386.6z"/>
            </g>
          </g>
          <g>
            <g>
              <path class="st10" d="M169.1,240.9c1.7-2.3,3.4-4.5,5.1-6.8c0.3-0.4,0.1-1.1-0.4-1.4c-0.5-0.3-1-0.1-1.4,0.4 c-1.7,2.3-3.4,4.5-5.1,6.8c-0.3,0.4-0.1,1.1,0.4,1.4C168.3,241.6,168.8,241.3,169.1,240.9L169.1,240.9z"/>
            </g>
          </g>
          <g>
            <g>
              <path class="st10" d="M247.7,246.1c1.6,5.1,5.8,9.1,10.9,10.6c1.2,0.4,1.8-1.6,0.5-1.9c-4.4-1.3-8.1-4.8-9.5-9.2 C249.2,244.3,247.3,244.9,247.7,246.1L247.7,246.1z"/>
            </g>
          </g>
          <g>
            <g>
              <path class="st10" d="M257.9,230.2c2.6,5.1,7.2,9.1,12.6,11.1c0.5,0.2,1.1-0.2,1.2-0.7c0.2-0.6-0.2-1-0.7-1.2 c-4.9-1.8-9-5.5-11.4-10.2C259.1,228,257.3,229,257.9,230.2L257.9,230.2z"/>
            </g>
          </g>
          <g>
            <g>
              <path class="st10" d="M276,218c0.9,5.1,2.5,10.1,4.6,14.9c0.5,1.2,2.2,0.2,1.7-1c-2-4.6-3.5-9.5-4.4-14.4 C277.7,216.2,275.8,216.8,276,218L276,218z"/>
            </g>
          </g>
          <g>
            <g>
              <path class="st10" d="M290.7,208.7c0.4,3.9,0.7,7.9,1.1,11.8c0,0.5,0.4,1,1,1c0.5,0,1.1-0.5,1-1c-0.4-3.9-0.7-7.9-1.1-11.8 c0-0.5-0.4-1-1-1C291.2,207.7,290.7,208.2,290.7,208.7L290.7,208.7z"/>
            </g>
          </g>
          <g>
            <g>
              <path class="st10" d="M306.7,203.8c-1.3,2.4-2.6,4.9-4,7.3c-0.3,0.5-0.1,1.1,0.4,1.4c0.5,0.3,1.1,0.1,1.4-0.4 c1.3-2.4,2.6-4.9,4-7.3c0.3-0.5,0.1-1.1-0.4-1.4C307.6,203.2,306.9,203.3,306.7,203.8L306.7,203.8z"/>
            </g>
          </g>
          <g>
            <g>
              <path class="st10" d="M321.6,200.2c-1.8,2.7-3.4,5.6-4.7,8.7c-0.2,0.5-0.1,1.1,0.4,1.4c0.4,0.2,1.2,0.1,1.4-0.4 c1.3-3,2.9-5.9,4.7-8.7c0.3-0.5,0.1-1.1-0.4-1.4C322.5,199.6,321.9,199.8,321.6,200.2L321.6,200.2z"/>
            </g>
          </g>
          <g>
            <g>
              <path class="st10" d="M334.7,206.1c1.5-1.3,2.6-3.1,3.1-5c0.1-0.5-0.2-1.1-0.7-1.2c-0.5-0.1-1.1,0.2-1.2,0.7 c-0.1,0.2-0.1,0.4-0.2,0.6c0,0.1-0.1,0.2-0.1,0.3c0,0,0,0.1-0.1,0.1c0,0.1,0.1-0.2,0,0c-0.2,0.4-0.4,0.8-0.6,1.2 c-0.1,0.2-0.2,0.3-0.3,0.5c0,0-0.1,0.1-0.1,0.1c0-0.1,0.1-0.1,0,0c-0.1,0.1-0.1,0.2-0.2,0.3c-0.3,0.3-0.6,0.7-1,1 c-0.4,0.3-0.4,1.1,0,1.4C333.7,206.5,334.3,206.5,334.7,206.1L334.7,206.1z"/>
            </g>
          </g>
          <g>
            <g>
              <path class="st10" d="M277,275.3c0.1,4.6,1.9,9,5.1,12.4c0.9,0.9,2.3-0.5,1.4-1.4c-2.8-2.9-4.4-6.9-4.5-11 C279,274,277,274,277,275.3L277,275.3z"/>
            </g>
          </g>
          <g>
            <g>
              <path class="st10" d="M283.5,263.7c1.1,4.7,4.4,8.8,8.8,10.8c0.5,0.2,1.1,0.1,1.4-0.4c0.3-0.4,0.1-1.1-0.4-1.4 c-3.9-1.8-6.8-5.4-7.8-9.6C285.1,261.9,283.2,262.4,283.5,263.7L283.5,263.7z"/>
            </g>
          </g>
          <g>
            <g>
              <path class="st10" d="M291.8,252.6c4.1,4.7,8.8,8.9,14.1,12.2c1.1,0.7,2.1-1,1-1.7c-5.1-3.2-9.8-7.3-13.7-11.9 C292.3,250.2,290.9,251.6,291.8,252.6L291.8,252.6z"/>
            </g>
          </g>
          <g>
            <g>
              <path class="st10" d="M300.2,241.1c5.8,3.5,11.6,6.9,17.4,10.4c1.1,0.7,2.1-1.1,1-1.7c-5.8-3.5-11.6-6.9-17.4-10.4 C300.1,238.7,299.1,240.4,300.2,241.1L300.2,241.1z"/>
            </g>
          </g>
          <g>
            <g>
              <path class="st10" d="M315.7,233.1c4.9,1.4,9.6,3.3,14.2,5.5c1.1,0.6,2.2-1.2,1-1.7c-4.7-2.3-9.6-4.3-14.7-5.7 C315,230.8,314.5,232.8,315.7,233.1L315.7,233.1z"/>
            </g>
          </g>
          <g>
            <g>
              <path class="st10" d="M325.5,226.1c3.6-1.5,7.8-0.8,10.8,1.4c0.4,0.3,1.1,0.1,1.4-0.4c0.3-0.5,0.1-1-0.4-1.4 c-3.7-2.8-8.7-3.2-12.9-1.4c-0.5,0.2-0.6,0.9-0.4,1.4C324.4,226.3,325,226.3,325.5,226.1L325.5,226.1z"/>
            </g>
          </g>
          <g>
            <g>
              <path class="st10" d="M338.5,218.9c3-0.2,6-0.5,9-0.7c0.5,0,1-0.4,1-1c0-0.5-0.5-1-1-1c-3,0.2-6,0.5-9,0.7c-0.5,0-1,0.4-1,1 C337.5,218.4,337.9,218.9,338.5,218.9L338.5,218.9z"/>
            </g>
          </g>
        </g>
      </g>
    </g>
    <g id="text"/>
  </g>
</svg>